<?xml version="1.0" encoding="utf-8" standalone="no"?>
<!DOCTYPE svg PUBLIC "-//W3C//DTD SVG 1.1//EN"
  "http://www.w3.org/Graphics/SVG/1.1/DTD/svg11.dtd">
<svg xmlns:xlink="http://www.w3.org/1999/xlink" width="535.697156pt" height="447.75pt" viewBox="0 0 535.697156 447.75" xmlns="http://www.w3.org/2000/svg" version="1.1">
 <metadata>
  <rdf:RDF xmlns:dc="http://purl.org/dc/elements/1.1/" xmlns:cc="http://creativecommons.org/ns#" xmlns:rdf="http://www.w3.org/1999/02/22-rdf-syntax-ns#">
   <cc:Work>
    <dc:type rdf:resource="http://purl.org/dc/dcmitype/StillImage"/>
    <dc:date>2026-06-29T19:14:21.154375</dc:date>
    <dc:format>image/svg+xml</dc:format>
    <dc:creator>
     <cc:Agent>
      <dc:title>Matplotlib v3.9.4, https://matplotlib.org/</dc:title>
     </cc:Agent>
    </dc:creator>
   </cc:Work>
  </rdf:RDF>
 </metadata>
 <defs>
  <style type="text/css">*{stroke-linejoin: round; stroke-linecap: butt}</style>
 </defs>
 <g id="figure_1">
  <g id="patch_1">
   <path d="M 0 447.75 
L 535.697156 447.75 
L 535.697156 0 
L 0 0 
z
" style="fill: #ffffff"/>
  </g>
  <g id="patch_2">
   <path d="M 77.409035 232.172664 
L 253.781699 232.172664 
L 253.781699 55.8 
L 77.409035 55.8 
z
" style="fill: #ffffff"/>
  </g>
  <g id="pane3d_1">
   <g id="patch_3">
    <path d="M 83.766918 174.683531 
L 159.690507 134.502656 
L 159.560834 93.410865 
L 82.290911 129.353194 
" style="fill: #fbfcfe; opacity: 0.5; stroke: #e9edf3; stroke-linejoin: miter"/>
   </g>
  </g>
  <g id="pane3d_2">
   <g id="patch_4">
    <path d="M 159.690507 134.502656 
L 247.375995 152.953345 
L 248.686738 109.89873 
L 159.560834 93.410865 
" style="fill: #fbfcfe; opacity: 0.5; stroke: #e9edf3; stroke-linejoin: miter"/>
   </g>
  </g>
  <g id="pane3d_3">
   <g id="patch_5">
    <path d="M 83.766918 174.683531 
L 177.813063 197.903366 
L 247.375995 152.953345 
L 159.690507 134.502656 
" style="fill: #f4f8fc; opacity: 0.5; stroke: #e3e8ef; stroke-linejoin: miter"/>
   </g>
  </g>
  <g id="grid3d_1">
   <g id="Line3DCollection_1">
    <path d="M 97.118709 177.980066 
L 172.208195 137.136615 
L 172.274887 95.762904 
" style="fill: none; stroke: #b0b0b0; stroke-width: 0.8"/>
    <path d="M 121.322733 183.955999 
L 194.841788 141.899152 
L 195.271362 100.017142 
" style="fill: none; stroke: #b0b0b0; stroke-width: 0.8"/>
    <path d="M 146.293277 190.121184 
L 218.113649 146.795993 
L 218.926857 104.393295 
" style="fill: none; stroke: #b0b0b0; stroke-width: 0.8"/>
    <path d="M 172.06734 196.484756 
L 242.051164 151.832899 
L 243.270114 108.89668 
" style="fill: none; stroke: #b0b0b0; stroke-width: 0.8"/>
   </g>
  </g>
  <g id="grid3d_2">
   <g id="Line3DCollection_2">
    <path d="M 83.605129 128.741881 
L 85.055889 174.001372 
L 179.001545 197.135395 
" style="fill: none; stroke: #b0b0b0; stroke-width: 0.8"/>
    <path d="M 104.310568 119.110686 
L 105.374281 163.248314 
L 197.70153 185.051881 
" style="fill: none; stroke: #b0b0b0; stroke-width: 0.8"/>
    <path d="M 123.855813 110.019159 
L 124.572664 153.087995 
L 215.311525 173.672693 
" style="fill: none; stroke: #b0b0b0; stroke-width: 0.8"/>
    <path d="M 142.335722 101.423176 
L 142.741161 143.472722 
L 231.924134 162.937994 
" style="fill: none; stroke: #b0b0b0; stroke-width: 0.8"/>
   </g>
  </g>
  <g id="grid3d_3">
   <g id="Line3DCollection_3">
    <path d="M 247.379223 152.847343 
L 159.690188 134.401401 
L 83.763287 174.572038 
" style="fill: none; stroke: #b0b0b0; stroke-width: 0.8"/>
    <path d="M 247.731304 141.282339 
L 159.655334 123.356822 
L 83.367102 162.404604 
" style="fill: none; stroke: #b0b0b0; stroke-width: 0.8"/>
    <path d="M 248.086522 129.614314 
L 159.620187 112.218966 
L 82.967171 150.122148 
" style="fill: none; stroke: #b0b0b0; stroke-width: 0.8"/>
    <path d="M 248.444919 117.841885 
L 159.584741 100.986647 
L 82.563442 137.72303 
" style="fill: none; stroke: #b0b0b0; stroke-width: 0.8"/>
   </g>
  </g>
  <g id="axis3d_1">
   <g id="line2d_1">
    <path d="M 83.766918 174.683531 
L 177.813063 197.903366 
" style="fill: none; stroke: #000000; stroke-width: 0.8; stroke-linecap: square"/>
   </g>
   <g id="xtick_1">
    <g id="line2d_2">
     <path d="M 97.790414 177.614706 
L 95.771448 178.712882 
" style="fill: none; stroke: #000000; stroke-width: 0.8; stroke-linecap: square"/>
    </g>
    <g id="text_1">
     <text style="font: 6.8px 'Arial', 'DejaVu Sans', 'Liberation Sans', sans-serif; text-anchor: middle" x="89.842198" y="190.807524" transform="rotate(-0 89.842198 190.807524)">0</text>
    </g>
   </g>
   <g id="xtick_2">
    <g id="line2d_3">
     <path d="M 121.981472 183.579165 
L 120.001419 184.711861 
" style="fill: none; stroke: #000000; stroke-width: 0.8; stroke-linecap: square"/>
    </g>
    <g id="text_2">
     <text style="font: 6.8px 'Arial', 'DejaVu Sans', 'Liberation Sans', sans-serif; text-anchor: middle" x="114.151817" y="196.962995" transform="rotate(-0 114.151817 196.962995)">2500</text>
    </g>
   </g>
   <g id="xtick_3">
    <g id="line2d_4">
     <path d="M 146.937886 189.732327 
L 145.000244 190.901198 
" style="fill: none; stroke: #000000; stroke-width: 0.8; stroke-linecap: square"/>
    </g>
    <g id="text_3">
     <text style="font: 6.8px 'Arial', 'DejaVu Sans', 'Liberation Sans', sans-serif; text-anchor: middle" x="139.238412" y="203.315206" transform="rotate(-0 139.238412 203.315206)">5000</text>
    </g>
   </g>
   <g id="xtick_4">
    <g id="line2d_5">
     <path d="M 172.696563 196.083292 
L 170.805111 197.290097 
" style="fill: none; stroke: #000000; stroke-width: 0.8; stroke-linecap: square"/>
    </g>
    <g id="text_4">
     <text style="font: 6.8px 'Arial', 'DejaVu Sans', 'Liberation Sans', sans-serif; text-anchor: middle" x="165.139837" y="209.87374" transform="rotate(-0 165.139837 209.87374)">7500</text>
    </g>
   </g>
   <g id="text_5">
    <text style="font: 8px 'Arial', 'DejaVu Sans', 'Liberation Sans', sans-serif; text-anchor: middle" x="108.96215" y="210.87533" transform="rotate(-346.131138 108.96215 210.87533)">x (m)</text>
   </g>
  </g>
  <g id="axis3d_2">
   <g id="line2d_6">
    <path d="M 247.375995 152.953345 
L 177.813063 197.903366 
" style="fill: none; stroke: #000000; stroke-width: 0.8; stroke-linecap: square"/>
   </g>
   <g id="xtick_5">
    <g id="line2d_7">
     <path d="M 178.204542 196.939133 
L 180.597888 197.528493 
" style="fill: none; stroke: #000000; stroke-width: 0.8; stroke-linecap: square"/>
    </g>
    <g id="text_6">
     <text style="font: 6.8px 'Arial', 'DejaVu Sans', 'Liberation Sans', sans-serif; text-anchor: middle" x="187.696843" y="208.236714" transform="rotate(-0 187.696843 208.236714)">−3000</text>
    </g>
   </g>
   <g id="xtick_6">
    <g id="line2d_8">
     <path d="M 196.919595 184.867223 
L 199.26762 185.421721 
" style="fill: none; stroke: #000000; stroke-width: 0.8; stroke-linecap: square"/>
    </g>
    <g id="text_7">
     <text style="font: 6.8px 'Arial', 'DejaVu Sans', 'Liberation Sans', sans-serif; text-anchor: middle" x="206.202606" y="195.921606" transform="rotate(-0 206.202606 195.921606)">0</text>
    </g>
   </g>
   <g id="xtick_7">
    <g id="line2d_9">
     <path d="M 214.544284 173.498639 
L 216.848125 174.02128 
" style="fill: none; stroke: #000000; stroke-width: 0.8; stroke-linecap: square"/>
    </g>
    <g id="text_8">
     <text style="font: 6.8px 'Arial', 'DejaVu Sans', 'Liberation Sans', sans-serif; text-anchor: middle" x="223.625908" y="184.326848" transform="rotate(-0 223.625908 184.326848)">3000</text>
    </g>
   </g>
   <g id="xtick_8">
    <g id="line2d_10">
     <path d="M 231.171198 162.773657 
L 233.432024 163.26711 
" style="fill: none; stroke: #000000; stroke-width: 0.8; stroke-linecap: square"/>
    </g>
    <g id="text_9">
     <text style="font: 6.8px 'Arial', 'DejaVu Sans', 'Liberation Sans', sans-serif; text-anchor: middle" x="240.059025" y="173.391032" transform="rotate(-0 240.059025 173.391032)">6000</text>
    </g>
   </g>
   <g id="text_10">
    <text style="font: 8px 'Arial', 'DejaVu Sans', 'Liberation Sans', sans-serif; text-anchor: middle" x="239.853962" y="192.611699" transform="rotate(-32.869646 239.853962 192.611699)">y (m)</text>
   </g>
  </g>
  <g id="axis3d_3">
   <g id="line2d_11">
    <path d="M 247.375995 152.953345 
L 248.686738 109.89873 
" style="fill: none; stroke: #000000; stroke-width: 0.8; stroke-linecap: square"/>
   </g>
   <g id="xtick_9">
    <g id="line2d_12">
     <path d="M 246.639949 152.691832 
L 248.859697 153.15877 
" style="fill: none; stroke: #000000; stroke-width: 0.8; stroke-linecap: square"/>
    </g>
    <g id="text_11">
     <text style="font: 6.8px 'Arial', 'DejaVu Sans', 'Liberation Sans', sans-serif; text-anchor: middle" x="262.408668" y="155.719067" transform="rotate(-0 262.408668 155.719067)">0</text>
    </g>
   </g>
   <g id="xtick_10">
    <g id="line2d_13">
     <path d="M 246.988601 141.131181 
L 249.218656 141.58505 
" style="fill: none; stroke: #000000; stroke-width: 0.8; stroke-linecap: square"/>
    </g>
    <g id="text_12">
     <text style="font: 6.8px 'Arial', 'DejaVu Sans', 'Liberation Sans', sans-serif; text-anchor: middle" x="262.825052" y="144.20997" transform="rotate(-0 262.825052 144.20997)">2000</text>
    </g>
   </g>
   <g id="xtick_11">
    <g id="line2d_14">
     <path d="M 247.340357 129.467593 
L 249.580816 129.90814 
" style="fill: none; stroke: #000000; stroke-width: 0.8; stroke-linecap: square"/>
    </g>
    <g id="text_13">
     <text style="font: 6.8px 'Arial', 'DejaVu Sans', 'Liberation Sans', sans-serif; text-anchor: middle" x="263.245123" y="132.598927" transform="rotate(-0 263.245123 132.598927)">4000</text>
    </g>
   </g>
   <g id="xtick_12">
    <g id="line2d_15">
     <path d="M 247.695259 117.699687 
L 249.94622 118.126656 
" style="fill: none; stroke: #000000; stroke-width: 0.8; stroke-linecap: square"/>
    </g>
    <g id="text_14">
     <text style="font: 6.8px 'Arial', 'DejaVu Sans', 'Liberation Sans', sans-serif; text-anchor: middle" x="263.668932" y="120.884576" transform="rotate(-0 263.668932 120.884576)">6000</text>
    </g>
   </g>
   <g id="text_15">
    <text style="font: 8px 'Arial', 'DejaVu Sans', 'Liberation Sans', sans-serif; text-anchor: middle" x="288.470231" y="126.870889" transform="rotate(-88.256242 288.470231 126.870889)">z (m)</text>
   </g>
  </g>
  <g id="axes_1">
   <g id="line2d_16">
    <path d="M 134.437758 164.895951 
L 116.948166 166.456324 
L 113.19277 167.018861 
L 110.155399 167.705029 
L 107.926629 168.439631 
L 106.095038 169.307649 
L 104.954 170.077614 
L 104.135166 170.901248 
L 103.79209 171.542262 
L 103.688803 172.193577 
L 103.837719 172.84119 
L 104.248835 173.467567 
L 104.923635 174.055853 
L 105.830958 174.597149 
L 107.380299 175.215957 
L 109.251858 175.698701 
L 111.363609 176.028478 
L 114.213059 176.201453 
L 117.128998 176.117962 
L 119.380525 175.860302 
L 121.949991 175.319856 
L 123.718404 174.740082 
L 125.164866 174.059614 
L 126.275624 173.320161 
L 127.256148 172.388227 
L 129.263507 170.212245 
L 130.053224 169.877453 
L 132.13021 169.369615 
L 133.96437 168.82038 
L 149.524161 163.301905 
L 150.977919 162.441642 
L 151.860071 161.65796 
L 153.67473 159.868998 
L 154.677472 159.191176 
L 155.734473 158.690888 
L 157.491382 158.149682 
L 159.692889 157.741805 
L 162.177176 157.519902 
L 164.768856 157.506476 
L 167.369976 157.70158 
L 169.857044 158.103803 
L 172.137592 158.69764 
L 173.710739 159.292916 
L 175.016665 159.986332 
L 175.999739 160.750861 
L 176.503633 161.366684 
L 176.789773 162.006969 
L 176.851772 162.662326 
L 176.706275 163.333965 
L 176.207618 164.240647 
L 175.578983 164.908322 
L 174.467793 165.766226 
L 172.436181 167.001148 
L 170.754324 167.754946 
L 168.288943 168.594692 
L 165.471946 169.300835 
L 161.744202 169.989555 
L 156.495909 170.733343 
L 152.995393 171.041695 
L 146.472999 171.297334 
L 141.3371 171.273988 
L 136.954704 171.083315 
L 136.954704 171.083315 
" clip-path="url(#p74ceb25f16)" style="fill: none; stroke: #98a2b3; stroke-opacity: 0.12; stroke-linecap: square"/>
   </g>
   <g id="line2d_17">
    <path d="M 118.502707 166.348661 
L 124.883759 167.749788 
L 129.808432 168.575119 
L 136.180939 169.396039 
L 141.439816 169.884936 
L 146.855526 170.182041 
L 152.358496 170.273613 
L 156.784683 170.134272 
L 160.597435 169.817386 
L 164.256377 169.29353 
L 167.156447 168.656814 
L 169.716959 167.845628 
L 171.493679 167.042431 
L 172.612707 166.326472 
L 173.416883 165.55814 
L 173.872659 164.753924 
L 174.017415 164.136868 
L 173.974144 163.515873 
L 173.724628 162.901295 
L 173.254137 162.306168 
L 172.284755 161.563154 
L 170.960602 160.899917 
L 169.316463 160.347432 
L 167.417236 159.921209 
L 164.795932 159.58833 
L 162.040087 159.498296 
L 159.296125 159.638541 
L 156.729112 160.012469 
L 154.462587 160.589707 
L 152.941399 161.175274 
L 151.741921 161.851451 
L 150.905006 162.594712 
L 150.521757 163.178909 
L 150.309297 163.967255 
L 150.358458 164.7366 
L 150.719487 165.960315 
L 150.954839 166.999039 
L 150.891885 167.790832 
L 150.580647 169.478588 
L 150.775108 170.149644 
L 151.230155 170.825219 
L 152.248118 171.805865 
L 155.773806 174.900539 
L 156.61484 176.018478 
L 157.085461 176.989739 
L 157.31692 177.989811 
L 157.564774 179.831219 
L 157.863819 181.271215 
L 158.689895 183.742826 
L 159.798571 186.004941 
L 160.625733 187.225114 
L 161.554406 188.219471 
L 162.804766 189.170439 
L 164.738462 190.230024 
L 166.368138 190.833581 
L 168.299387 191.304755 
L 170.477063 191.61641 
L 172.780539 191.735611 
L 175.110795 191.658311 
L 177.342741 191.383519 
L 179.361262 190.922426 
L 181.09179 190.303678 
L 182.423798 189.55521 
L 183.132305 188.926885 
L 183.561186 188.261194 
L 183.721108 187.570707 
L 183.60884 186.875203 
L 183.511622 186.646307 
L 183.511622 186.646307 
" clip-path="url(#p74ceb25f16)" style="fill: none; stroke: #b64342; stroke-opacity: 0.16; stroke-width: 1.2; stroke-linecap: square"/>
   </g>
   <g id="line2d_18">
    <path d="M 118.502707 166.348661 
L 117.927588 136.188471 
" clip-path="url(#p74ceb25f16)" style="fill: none; stroke-dasharray: 1.6,1.6; stroke-dashoffset: 0; stroke: #b64342; stroke-opacity: 0.26; stroke-width: 0.8"/>
   </g>
   <g id="line2d_19">
    <path d="M 127.06465 168.142521 
L 126.581056 137.496191 
" clip-path="url(#p74ceb25f16)" style="fill: none; stroke-dasharray: 1.6,1.6; stroke-dashoffset: 0; stroke: #b64342; stroke-opacity: 0.26; stroke-width: 0.8"/>
   </g>
   <g id="line2d_20">
    <path d="M 183.511622 186.646307 
L 183.649943 163.721858 
" clip-path="url(#p74ceb25f16)" style="fill: none; stroke-dasharray: 1.6,1.6; stroke-dashoffset: 0; stroke: #b64342; stroke-opacity: 0.26; stroke-width: 0.8"/>
   </g>
   <g id="line2d_21">
    <path d="M 134.03376 133.626721 
L 130.6732 133.996 
L 126.761144 134.672457 
L 121.180242 135.926278 
L 112.050143 138.169902 
L 109.515761 139.018685 
L 107.268144 140.012144 
L 105.758835 140.919315 
L 104.537628 141.907366 
L 103.62826 142.945047 
L 103.198271 143.753274 
L 103.014547 144.562536 
L 103.083118 145.35435 
L 103.411529 146.126714 
L 104.010921 146.869462 
L 104.85452 147.558482 
L 105.923948 148.188912 
L 107.668415 148.919059 
L 109.693691 149.492442 
L 111.921057 149.897414 
L 114.259803 150.107602 
L 117.1987 150.108133 
L 119.439064 149.924507 
L 121.49142 149.559958 
L 123.278305 149.024285 
L 124.738959 148.325575 
L 125.608995 147.69284 
L 126.301504 146.969751 
L 126.997964 145.879115 
L 127.637651 144.368065 
L 128.974224 140.951727 
L 129.788121 139.541611 
L 131.486617 137.18906 
L 133.73546 134.367058 
L 135.148827 132.914685 
L 136.741233 131.598725 
L 138.509978 130.467767 
L 140.427538 129.55567 
L 142.446822 128.886477 
L 144.491153 128.470776 
L 146.45706 128.300288 
L 148.23691 128.345517 
L 149.966703 128.611723 
L 151.251714 129.038343 
L 152.312623 129.659417 
L 153.694156 130.506235 
L 155.606294 131.449291 
L 157.799525 132.26111 
L 162.640596 133.946624 
L 165.799501 135.334894 
L 168.383857 136.709868 
L 170.825361 138.253106 
L 172.588679 139.608755 
L 174.105618 141.069464 
L 175.345317 142.614886 
L 176.051939 143.829076 
L 176.557072 145.070946 
L 176.842908 146.333916 
L 176.903175 147.609978 
L 176.754855 148.874815 
L 176.41347 150.119058 
L 175.853255 151.3342 
L 174.794175 152.914296 
L 173.5272 154.473264 
L 171.65312 156.38935 
L 169.813108 157.815894 
L 167.75761 159.174745 
L 165.463347 160.411259 
L 162.368906 161.80862 
L 156.466446 164.087347 
L 153.674276 164.908977 
L 149.348688 165.902692 
L 144.2337 166.925644 
L 139.099501 167.743522 
L 136.918155 168.032211 
L 136.918155 168.032211 
" clip-path="url(#p74ceb25f16)" style="fill: none; stroke: #98a2b3; stroke-width: 1.8; stroke-linecap: round"/>
   </g>
   <g id="line2d_22">
    <path d="M 117.927588 136.188471 
L 121.862592 136.94435 
L 125.6875 137.413731 
L 131.764315 137.882163 
L 148.817694 138.936704 
L 154.973614 139.157388 
L 159.966755 139.148883 
L 164.21277 138.933182 
L 167.603624 138.543507 
L 170.124486 138.063113 
L 171.847971 137.559094 
L 173.116388 136.97786 
L 173.744371 136.460525 
L 174.056155 135.901538 
L 174.076136 135.456418 
L 173.894887 135.006573 
L 173.498296 134.572577 
L 172.611511 134.024137 
L 171.358691 133.518096 
L 169.773423 133.110129 
L 167.411369 132.744506 
L 164.762877 132.571519 
L 161.41819 132.638708 
L 158.667895 132.897814 
L 156.128812 133.364961 
L 153.91107 133.964418 
L 152.136627 134.682595 
L 151.103744 135.329338 
L 150.446903 135.994884 
L 150.149784 136.604753 
L 150.141189 137.080657 
L 150.364385 137.404516 
L 150.625814 137.411801 
L 150.759131 137.178736 
L 150.687231 136.731841 
L 150.399569 135.699913 
L 150.695957 135.492063 
L 151.393481 135.357594 
L 152.381358 135.415726 
L 153.338211 135.664752 
L 154.325178 136.125485 
L 155.256123 136.801872 
L 156.056108 137.684702 
L 156.668219 138.751507 
L 157.051543 139.974632 
L 157.190579 141.319127 
L 157.388427 143.006622 
L 157.722971 145.350004 
L 158.564854 149.050195 
L 159.815224 152.924783 
L 160.886475 155.254373 
L 161.704177 156.59376 
L 162.74189 157.917872 
L 164.332637 159.533537 
L 165.907397 160.757924 
L 167.788343 161.869039 
L 169.937195 162.811648 
L 172.245735 163.578032 
L 174.60149 164.153124 
L 177.440331 164.603963 
L 179.945428 164.777928 
L 182.266799 164.69508 
L 183.450873 164.437992 
L 183.841152 164.144787 
L 183.818295 163.888482 
L 183.649943 163.721858 
L 183.649943 163.721858 
" clip-path="url(#p74ceb25f16)" style="fill: none; stroke: #b64342; stroke-width: 2.3; stroke-linecap: round"/>
   </g>
   <g id="Path3DCollection_1">
    <path d="M 118.502707 168.469981 
C 119.065288 168.469981 119.604902 168.246465 120.002707 167.848661 
C 120.400512 167.450856 120.624027 166.911241 120.624027 166.348661 
C 120.624027 165.78608 120.400512 165.246465 120.002707 164.848661 
C 119.604902 164.450856 119.065288 164.22734 118.502707 164.22734 
C 117.940126 164.22734 117.400512 164.450856 117.002707 164.848661 
C 116.604902 165.246465 116.381387 165.78608 116.381387 166.348661 
C 116.381387 166.911241 116.604902 167.450856 117.002707 167.848661 
C 117.400512 168.246465 117.940126 168.469981 118.502707 168.469981 
z
" clip-path="url(#p74ceb25f16)" style="fill: #b64342; fill-opacity: 0.22"/>
   </g>
   <g id="text_16">
    <g id="patch_6">
     <path d="M 82.700215 77.50943 
L 199.954465 77.50943 
Q 201.970465 77.50943 201.970465 75.49343 
L 201.970465 61.175555 
Q 201.970465 59.159555 199.954465 59.159555 
L 82.700215 59.159555 
Q 80.684215 59.159555 80.684215 61.175555 
L 80.684215 75.49343 
Q 80.684215 77.50943 82.700215 77.50943 
z
" style="fill: #ffffff; stroke: #d0d5dd; stroke-linejoin: miter"/>
    </g>
    <text style="fill: #344054; font: 7.2px 'Arial', 'DejaVu Sans', 'Liberation Sans', sans-serif" transform="translate(82.700215 66.337055)">Counterpart crash/OOB</text>
    <text style="fill: #344054; font: 7.2px 'Arial', 'DejaVu Sans', 'Liberation Sans', sans-serif" transform="translate(82.700215 73.978055)">Damage margin -2.5, duration 78.6 s</text>
   </g>
   <g id="text_17">
    <text style="font: 700 11px 'Arial', 'DejaVu Sans', 'Liberation Sans', sans-serif; text-anchor: start" x="52.716862" y="50.101765" transform="rotate(-0 52.716862 50.101765)">a</text>
   </g>
   <g id="text_18">
    <text style="font: 8.8px 'Arial', 'DejaVu Sans', 'Liberation Sans', sans-serif; text-anchor: middle" x="165.595367" y="47.8" transform="rotate(-0 165.595367 47.8)">Broad variant</text>
   </g>
   <g id="Path3DCollection_2">
    <path d="M 127.06465 170.263842 
C 127.627231 170.263842 128.166846 170.040326 128.56465 169.642521 
C 128.962455 169.244717 129.185971 168.705102 129.185971 168.142521 
C 129.185971 167.579941 128.962455 167.040326 128.56465 166.642521 
C 128.166846 166.244717 127.627231 166.021201 127.06465 166.021201 
C 126.502069 166.021201 125.962455 166.244717 125.56465 166.642521 
C 125.166846 167.040326 124.94333 167.579941 124.94333 168.142521 
C 124.94333 168.705102 125.166846 169.244717 125.56465 169.642521 
C 125.962455 170.040326 126.502069 170.263842 127.06465 170.263842 
z
" clip-path="url(#p74ceb25f16)" style="fill: #b64342; fill-opacity: 0.22"/>
   </g>
   <g id="Path3DCollection_3">
    <defs>
     <path id="C0_0_620b4a2a36" d="M 0 2.645751 
C 0.701661 2.645751 1.374679 2.366978 1.870829 1.870829 
C 2.366978 1.374679 2.645751 0.701661 2.645751 -0 
C 2.645751 -0.701661 2.366978 -1.374679 1.870829 -1.870829 
C 1.374679 -2.366978 0.701661 -2.645751 0 -2.645751 
C -0.701661 -2.645751 -1.374679 -2.366978 -1.870829 -1.870829 
C -2.366978 -1.374679 -2.645751 -0.701661 -2.645751 0 
C -2.645751 0.701661 -2.366978 1.374679 -1.870829 1.870829 
C -1.374679 2.366978 -0.701661 2.645751 0 2.645751 
z
"/>
    </defs>
    <g clip-path="url(#p74ceb25f16)">
     <use xlink:href="#C0_0_620b4a2a36" x="134.03376" y="133.626721" style="fill: #98a2b3; fill-opacity: 0.3; stroke: #ffffff; stroke-opacity: 0.3; stroke-width: 0.6"/>
    </g>
    <g clip-path="url(#p74ceb25f16)">
     <use xlink:href="#C0_0_620b4a2a36" x="117.927588" y="136.188471" style="fill: #b64342; stroke: #ffffff; stroke-width: 0.6"/>
    </g>
   </g>
   <g id="Path3DCollection_4">
    <defs>
     <path id="m127062d5e8" d="M 0 4.582576 
L 4.582576 0 
L 0 -4.582576 
L -4.582576 0 
z
" style="stroke: #ffffff; stroke-width: 0.6"/>
    </defs>
    <g clip-path="url(#p74ceb25f16)">
     <use xlink:href="#m127062d5e8" x="126.581056" y="137.496191" style="fill: #b64342; stroke: #ffffff; stroke-width: 0.6"/>
    </g>
   </g>
   <g id="Path3DCollection_5">
    <path d="M 183.511622 188.767627 
C 184.074203 188.767627 184.613817 188.544112 185.011622 188.146307 
C 185.409427 187.748502 185.632942 187.208888 185.632942 186.646307 
C 185.632942 186.083726 185.409427 185.544112 185.011622 185.146307 
C 184.613817 184.748502 184.074203 184.524987 183.511622 184.524987 
C 182.949041 184.524987 182.409427 184.748502 182.011622 185.146307 
C 181.613817 185.544112 181.390302 186.083726 181.390302 186.646307 
C 181.390302 187.208888 181.613817 187.748502 182.011622 188.146307 
C 182.409427 188.544112 182.949041 188.767627 183.511622 188.767627 
z
" clip-path="url(#p74ceb25f16)" style="fill: #b64342; fill-opacity: 0.22"/>
   </g>
   <g id="Path3DCollection_6">
    <defs>
     <path id="C1_0_0f25fac20a" d="M -1.695582 3.391165 
L 0 1.695582 
L 1.695582 3.391165 
L 3.391165 1.695582 
L 1.695582 -0 
L 3.391165 -1.695582 
L 1.695582 -3.391165 
L 0 -1.695582 
L -1.695582 -3.391165 
L -3.391165 -1.695582 
L -1.695582 0 
L -3.391165 1.695582 
z
"/>
    </defs>
    <g clip-path="url(#p74ceb25f16)">
     <use xlink:href="#C1_0_0f25fac20a" x="136.918155" y="168.032211" style="fill: #98a2b3; fill-opacity: 0.3; stroke: #98a2b3; stroke-opacity: 0.3; stroke-width: 0.8"/>
    </g>
    <g clip-path="url(#p74ceb25f16)">
     <use xlink:href="#C1_0_0f25fac20a" x="183.649943" y="163.721858" style="fill: #b64342; stroke: #b64342; stroke-width: 0.8"/>
    </g>
   </g>
   <g id="Poly3DCollection_1">
    <defs>
     <path id="m0832a5149e" d="M 118.502707 -281.401339 
L 164.032374 -257.858604 
L 164.375428 -257.686566 
L 164.738462 -257.519976 
L 165.116141 -257.357611 
L 165.513823 -257.202283 
L 165.931246 -257.054877 
L 166.368138 -256.916419 
L 166.824347 -256.786299 
L 167.297789 -256.663467 
L 167.790492 -256.550017 
L 168.299387 -256.445245 
L 168.824548 -256.350902 
L 169.363795 -256.267025 
L 169.915529 -256.194829 
L 170.477063 -256.13359 
L 171.046592 -256.085108 
L 171.621492 -256.048166 
L 172.199495 -256.024484 
L 172.780539 -256.014389 
L 173.36398 -256.015227 
L 173.948081 -256.028944 
L 174.531247 -256.054153 
L 175.110795 -256.091689 
L 175.684465 -256.141756 
L 176.248414 -256.205281 
L 176.802817 -256.279603 
L 177.342741 -256.366481 
L 177.867843 -256.466 
L 178.381337 -256.575482 
L 178.87906 -256.696497 
L 179.361262 -256.827574 
L 179.825569 -256.968527 
L 180.271215 -257.118635 
L 180.692456 -257.27857 
L 181.09179 -257.446322 
L 181.46434 -257.62204 
L 181.807612 -257.806409 
L 182.128899 -257.99721 
L 182.423798 -258.19479 
L 182.6898 -258.398928 
L 182.924282 -258.608913 
L 183.132305 -258.823115 
L 183.306249 -259.041348 
L 183.446627 -259.263537 
L 183.561186 -259.488806 
L 183.643461 -259.71711 
L 183.696641 -259.947555 
L 183.721108 -260.179293 
L 183.716679 -260.411766 
L 183.67669 -260.643785 
L 183.60884 -260.874797 
L 173.831584 -284.64529 
L 173.724628 -284.848705 
L 173.595626 -285.050394 
L 173.439603 -285.249088 
L 173.254137 -285.443832 
L 173.046225 -285.635445 
L 172.815669 -285.823508 
L 172.562628 -286.007728 
L 172.284755 -286.186846 
L 171.985982 -286.361355 
L 171.664667 -286.530134 
L 171.323266 -286.693433 
L 170.960602 -286.850083 
L 170.5792 -287.000469 
L 170.177023 -287.142681 
L 169.754736 -287.276193 
L 169.316463 -287.402568 
L 168.862259 -287.521033 
L 168.394135 -287.632173 
L 167.911737 -287.734509 
L 167.417236 -287.828791 
L 166.910879 -287.913747 
L 166.394588 -287.990201 
L 165.868976 -288.056874 
L 165.335779 -288.1147 
L 164.795932 -288.16167 
L 164.250823 -288.197662 
L 163.701711 -288.224737 
L 163.149555 -288.242597 
L 162.595097 -288.252065 
L 162.040087 -288.251704 
L 161.485257 -288.242533 
L 160.932513 -288.223513 
L 160.382273 -288.195652 
L 159.836768 -288.157947 
L 159.296125 -288.111459 
L 158.762833 -288.055278 
L 158.236726 -287.99048 
L 157.721851 -287.915565 
z
" style="stroke: #b64342; stroke-opacity: 0.18; stroke-width: 0.6"/>
    </defs>
    <g clip-path="url(#p74ceb25f16)">
     <use xlink:href="#m0832a5149e" x="0" y="447.75" style="fill: #b64342; fill-opacity: 0.06; stroke: #b64342; stroke-opacity: 0.18; stroke-width: 0.6"/>
    </g>
   </g>
  </g>
  <g id="patch_7">
   <path d="M 294.875457 232.172664 
L 471.248121 232.172664 
L 471.248121 55.8 
L 294.875457 55.8 
z
" style="fill: #ffffff"/>
  </g>
  <g id="pane3d_4">
   <g id="patch_8">
    <path d="M 301.23334 174.683531 
L 377.156929 134.502656 
L 377.027256 93.410865 
L 299.757333 129.353194 
" style="fill: #fbfcfe; opacity: 0.5; stroke: #e9edf3; stroke-linejoin: miter"/>
   </g>
  </g>
  <g id="pane3d_5">
   <g id="patch_9">
    <path d="M 377.156929 134.502656 
L 464.842417 152.953345 
L 466.15316 109.89873 
L 377.027256 93.410865 
" style="fill: #fbfcfe; opacity: 0.5; stroke: #e9edf3; stroke-linejoin: miter"/>
   </g>
  </g>
  <g id="pane3d_6">
   <g id="patch_10">
    <path d="M 301.23334 174.683531 
L 395.279485 197.903366 
L 464.842417 152.953345 
L 377.156929 134.502656 
" style="fill: #f4f8fc; opacity: 0.5; stroke: #e3e8ef; stroke-linejoin: miter"/>
   </g>
  </g>
  <g id="grid3d_4">
   <g id="Line3DCollection_4">
    <path d="M 314.585131 177.980066 
L 389.674617 137.136615 
L 389.741309 95.762904 
" style="fill: none; stroke: #b0b0b0; stroke-width: 0.8"/>
    <path d="M 338.789155 183.955999 
L 412.30821 141.899152 
L 412.737784 100.017142 
" style="fill: none; stroke: #b0b0b0; stroke-width: 0.8"/>
    <path d="M 363.759699 190.121184 
L 435.580071 146.795993 
L 436.393279 104.393295 
" style="fill: none; stroke: #b0b0b0; stroke-width: 0.8"/>
    <path d="M 389.533762 196.484756 
L 459.517586 151.832899 
L 460.736536 108.89668 
" style="fill: none; stroke: #b0b0b0; stroke-width: 0.8"/>
   </g>
  </g>
  <g id="grid3d_5">
   <g id="Line3DCollection_5">
    <path d="M 301.071551 128.741881 
L 302.522311 174.001372 
L 396.467968 197.135395 
" style="fill: none; stroke: #b0b0b0; stroke-width: 0.8"/>
    <path d="M 321.77699 119.110686 
L 322.840703 163.248314 
L 415.167952 185.051881 
" style="fill: none; stroke: #b0b0b0; stroke-width: 0.8"/>
    <path d="M 341.322235 110.019159 
L 342.039086 153.087995 
L 432.777947 173.672693 
" style="fill: none; stroke: #b0b0b0; stroke-width: 0.8"/>
    <path d="M 359.802144 101.423176 
L 360.207583 143.472722 
L 449.390556 162.937994 
" style="fill: none; stroke: #b0b0b0; stroke-width: 0.8"/>
   </g>
  </g>
  <g id="grid3d_6">
   <g id="Line3DCollection_6">
    <path d="M 464.845645 152.847343 
L 377.15661 134.401401 
L 301.229709 174.572038 
" style="fill: none; stroke: #b0b0b0; stroke-width: 0.8"/>
    <path d="M 465.197726 141.282339 
L 377.121756 123.356822 
L 300.833524 162.404604 
" style="fill: none; stroke: #b0b0b0; stroke-width: 0.8"/>
    <path d="M 465.552944 129.614314 
L 377.086609 112.218966 
L 300.433593 150.122148 
" style="fill: none; stroke: #b0b0b0; stroke-width: 0.8"/>
    <path d="M 465.911341 117.841885 
L 377.051163 100.986647 
L 300.029864 137.72303 
" style="fill: none; stroke: #b0b0b0; stroke-width: 0.8"/>
   </g>
  </g>
  <g id="axis3d_4">
   <g id="line2d_23">
    <path d="M 301.23334 174.683531 
L 395.279485 197.903366 
" style="fill: none; stroke: #000000; stroke-width: 0.8; stroke-linecap: square"/>
   </g>
   <g id="xtick_13">
    <g id="line2d_24">
     <path d="M 315.256836 177.614706 
L 313.23787 178.712882 
" style="fill: none; stroke: #000000; stroke-width: 0.8; stroke-linecap: square"/>
    </g>
    <g id="text_19">
     <text style="font: 6.8px 'Arial', 'DejaVu Sans', 'Liberation Sans', sans-serif; text-anchor: middle" x="307.30862" y="190.807524" transform="rotate(-0 307.30862 190.807524)">0</text>
    </g>
   </g>
   <g id="xtick_14">
    <g id="line2d_25">
     <path d="M 339.447894 183.579165 
L 337.467841 184.711861 
" style="fill: none; stroke: #000000; stroke-width: 0.8; stroke-linecap: square"/>
    </g>
    <g id="text_20">
     <text style="font: 6.8px 'Arial', 'DejaVu Sans', 'Liberation Sans', sans-serif; text-anchor: middle" x="331.618239" y="196.962995" transform="rotate(-0 331.618239 196.962995)">2500</text>
    </g>
   </g>
   <g id="xtick_15">
    <g id="line2d_26">
     <path d="M 364.404308 189.732327 
L 362.466667 190.901198 
" style="fill: none; stroke: #000000; stroke-width: 0.8; stroke-linecap: square"/>
    </g>
    <g id="text_21">
     <text style="font: 6.8px 'Arial', 'DejaVu Sans', 'Liberation Sans', sans-serif; text-anchor: middle" x="356.704834" y="203.315206" transform="rotate(-0 356.704834 203.315206)">5000</text>
    </g>
   </g>
   <g id="xtick_16">
    <g id="line2d_27">
     <path d="M 390.162985 196.083292 
L 388.271533 197.290097 
" style="fill: none; stroke: #000000; stroke-width: 0.8; stroke-linecap: square"/>
    </g>
    <g id="text_22">
     <text style="font: 6.8px 'Arial', 'DejaVu Sans', 'Liberation Sans', sans-serif; text-anchor: middle" x="382.606259" y="209.87374" transform="rotate(-0 382.606259 209.87374)">7500</text>
    </g>
   </g>
   <g id="text_23">
    <text style="font: 8px 'Arial', 'DejaVu Sans', 'Liberation Sans', sans-serif; text-anchor: middle" x="326.428572" y="210.87533" transform="rotate(-346.131138 326.428572 210.87533)">x (m)</text>
   </g>
  </g>
  <g id="axis3d_5">
   <g id="line2d_28">
    <path d="M 464.842417 152.953345 
L 395.279485 197.903366 
" style="fill: none; stroke: #000000; stroke-width: 0.8; stroke-linecap: square"/>
   </g>
   <g id="xtick_17">
    <g id="line2d_29">
     <path d="M 395.670964 196.939133 
L 398.06431 197.528493 
" style="fill: none; stroke: #000000; stroke-width: 0.8; stroke-linecap: square"/>
    </g>
    <g id="text_24">
     <text style="font: 6.8px 'Arial', 'DejaVu Sans', 'Liberation Sans', sans-serif; text-anchor: middle" x="405.163265" y="208.236714" transform="rotate(-0 405.163265 208.236714)">−3000</text>
    </g>
   </g>
   <g id="xtick_18">
    <g id="line2d_30">
     <path d="M 414.386018 184.867223 
L 416.734042 185.421721 
" style="fill: none; stroke: #000000; stroke-width: 0.8; stroke-linecap: square"/>
    </g>
    <g id="text_25">
     <text style="font: 6.8px 'Arial', 'DejaVu Sans', 'Liberation Sans', sans-serif; text-anchor: middle" x="423.669028" y="195.921606" transform="rotate(-0 423.669028 195.921606)">0</text>
    </g>
   </g>
   <g id="xtick_19">
    <g id="line2d_31">
     <path d="M 432.010706 173.498639 
L 434.314547 174.02128 
" style="fill: none; stroke: #000000; stroke-width: 0.8; stroke-linecap: square"/>
    </g>
    <g id="text_26">
     <text style="font: 6.8px 'Arial', 'DejaVu Sans', 'Liberation Sans', sans-serif; text-anchor: middle" x="441.09233" y="184.326848" transform="rotate(-0 441.09233 184.326848)">3000</text>
    </g>
   </g>
   <g id="xtick_20">
    <g id="line2d_32">
     <path d="M 448.63762 162.773657 
L 450.898446 163.26711 
" style="fill: none; stroke: #000000; stroke-width: 0.8; stroke-linecap: square"/>
    </g>
    <g id="text_27">
     <text style="font: 6.8px 'Arial', 'DejaVu Sans', 'Liberation Sans', sans-serif; text-anchor: middle" x="457.525447" y="173.391032" transform="rotate(-0 457.525447 173.391032)">6000</text>
    </g>
   </g>
  </g>
  <g id="axis3d_6">
   <g id="line2d_33">
    <path d="M 464.842417 152.953345 
L 466.15316 109.89873 
" style="fill: none; stroke: #000000; stroke-width: 0.8; stroke-linecap: square"/>
   </g>
   <g id="xtick_21">
    <g id="line2d_34">
     <path d="M 464.106371 152.691832 
L 466.326119 153.15877 
" style="fill: none; stroke: #000000; stroke-width: 0.8; stroke-linecap: square"/>
    </g>
    <g id="text_28">
     <text style="font: 6.8px 'Arial', 'DejaVu Sans', 'Liberation Sans', sans-serif; text-anchor: middle" x="479.87509" y="155.719067" transform="rotate(-0 479.87509 155.719067)">0</text>
    </g>
   </g>
   <g id="xtick_22">
    <g id="line2d_35">
     <path d="M 464.455023 141.131181 
L 466.685078 141.58505 
" style="fill: none; stroke: #000000; stroke-width: 0.8; stroke-linecap: square"/>
    </g>
    <g id="text_29">
     <text style="font: 6.8px 'Arial', 'DejaVu Sans', 'Liberation Sans', sans-serif; text-anchor: middle" x="480.291474" y="144.20997" transform="rotate(-0 480.291474 144.20997)">2000</text>
    </g>
   </g>
   <g id="xtick_23">
    <g id="line2d_36">
     <path d="M 464.806779 129.467593 
L 467.047238 129.90814 
" style="fill: none; stroke: #000000; stroke-width: 0.8; stroke-linecap: square"/>
    </g>
    <g id="text_30">
     <text style="font: 6.8px 'Arial', 'DejaVu Sans', 'Liberation Sans', sans-serif; text-anchor: middle" x="480.711545" y="132.598927" transform="rotate(-0 480.711545 132.598927)">4000</text>
    </g>
   </g>
   <g id="xtick_24">
    <g id="line2d_37">
     <path d="M 465.161681 117.699687 
L 467.412642 118.126656 
" style="fill: none; stroke: #000000; stroke-width: 0.8; stroke-linecap: square"/>
    </g>
    <g id="text_31">
     <text style="font: 6.8px 'Arial', 'DejaVu Sans', 'Liberation Sans', sans-serif; text-anchor: middle" x="481.135354" y="120.884576" transform="rotate(-0 481.135354 120.884576)">6000</text>
    </g>
   </g>
   <g id="text_32">
    <text style="font: 8px 'Arial', 'DejaVu Sans', 'Liberation Sans', sans-serif; text-anchor: middle" x="505.936653" y="126.870889" transform="rotate(-88.256242 505.936653 126.870889)">z (m)</text>
   </g>
  </g>
  <g id="axes_2">
   <g id="line2d_38">
    <path d="M 351.904181 164.895952 
L 334.41463 166.456315 
L 330.659244 167.018837 
L 327.621862 167.704986 
L 325.393067 168.43957 
L 323.561477 169.307582 
L 322.420652 170.077578 
L 321.601262 170.901158 
L 321.25541 171.542264 
L 321.152349 172.193737 
L 321.302241 172.841393 
L 321.714236 173.467724 
L 322.389905 174.055861 
L 323.298444 174.596781 
L 324.849394 175.214752 
L 326.722444 175.696285 
L 328.835541 176.024243 
L 331.685756 176.194228 
L 334.601051 176.1073 
L 336.850799 175.846901 
L 339.415175 175.30388 
L 341.180723 174.727777 
L 342.962767 173.895112 
L 344.52927 172.867176 
L 346.818274 171.236456 
L 347.863816 170.898281 
L 349.60723 170.659466 
L 351.611204 170.386831 
L 353.131404 169.935598 
L 354.28146 169.37417 
L 355.177426 168.68139 
L 355.692716 168.003142 
L 355.919554 167.392376 
L 355.948689 166.752268 
L 355.771411 166.094525 
L 355.382266 165.431146 
L 354.633961 164.644919 
L 353.579008 163.88978 
L 351.981538 163.068062 
L 348.81358 161.783297 
L 346.537979 160.747693 
L 345.42126 160.000636 
L 344.737245 159.258614 
L 344.462893 158.670594 
L 344.336184 157.729224 
L 344.421172 156.988117 
L 344.681956 156.379547 
L 345.21101 155.701765 
L 346.069439 154.999997 
L 347.293456 154.330307 
L 348.844291 153.737827 
L 351.139886 153.126583 
L 353.750943 152.685932 
L 356.59352 152.432559 
L 359.535319 152.379897 
L 362.465369 152.53812 
L 365.292374 152.899663 
L 367.929592 153.451858 
L 370.253431 154.179339 
L 371.828582 154.873274 
L 373.106368 155.654406 
L 374.06274 156.503714 
L 374.544538 157.176 
L 374.827737 157.871536 
L 374.903515 158.582224 
L 374.767703 159.299835 
L 374.431513 160.017268 
L 373.700711 160.96149 
L 372.698297 161.878272 
L 371.136521 162.960396 
L 369.324778 163.943423 
L 366.639633 165.118739 
L 363.489477 166.240871 
L 361.005676 166.936478 
L 360.290316 167.020948 
L 360.329444 167.118001 
L 360.668646 167.32705 
L 361.453111 167.47439 
L 364.69684 167.623664 
L 365.901345 168.040884 
L 366.827015 168.580613 
L 367.444589 169.15724 
L 367.845056 169.821838 
L 367.984958 170.429387 
L 367.932534 171.073327 
L 367.898019 171.205428 
L 367.898019 171.205428 
" clip-path="url(#pe891e20e65)" style="fill: none; stroke: #98a2b3; stroke-opacity: 0.12; stroke-linecap: square"/>
   </g>
   <g id="line2d_39">
    <path d="M 335.969129 166.348661 
L 342.34983 167.74971 
L 347.274005 168.574901 
L 353.645502 169.396301 
L 358.906836 169.880719 
L 364.873212 170.198534 
L 370.966968 170.319779 
L 385.040005 170.505874 
L 390.680302 170.790822 
L 395.740799 171.289237 
L 399.615085 171.892827 
L 402.776285 172.59478 
L 405.668757 173.480753 
L 407.792769 174.355078 
L 409.58006 175.345151 
L 410.718459 176.210606 
L 411.572048 177.1287 
L 412.105819 178.08644 
L 412.278649 178.820075 
L 412.255502 179.558679 
L 412.02659 180.294363 
L 411.589946 181.018009 
L 410.947061 181.720669 
L 410.091014 182.391312 
L 408.636789 183.219418 
L 406.862328 183.957438 
L 404.800842 184.584359 
L 402.504443 185.085272 
L 399.385131 185.516391 
L 396.097559 185.716418 
L 392.764733 185.674337 
L 389.514845 185.390996 
L 386.468705 184.878107 
L 383.736908 184.156921 
L 381.852607 183.446341 
L 380.278494 182.637621 
L 379.041366 181.751844 
L 378.160951 180.811354 
L 377.747604 180.083209 
L 377.543681 179.346684 
L 377.537121 178.612601 
L 377.774837 177.655248 
L 378.410622 176.305662 
L 378.934667 175.091895 
L 379.004204 174.352894 
L 378.862792 173.824704 
L 378.408736 173.156044 
L 377.593231 172.378687 
L 376.556759 171.653993 
L 374.88191 170.497227 
L 373.95155 169.552833 
L 373.426959 168.727087 
L 373.134946 167.877987 
L 373.074637 167.016232 
L 373.247151 166.150826 
L 373.647846 165.290623 
L 374.274839 164.443659 
L 375.316164 163.455894 
L 377.079785 162.191494 
L 378.766874 161.101425 
L 382.766622 159.04596 
L 387.247485 156.885674 
L 393.833379 154.026655 
L 397.937012 151.857636 
L 401.513346 149.825454 
L 402.872417 148.731644 
L 404.086417 147.430051 
L 404.590959 146.59085 
L 404.805891 145.733938 
L 404.685858 145.040143 
L 404.395847 144.523402 
L 403.902007 144.025358 
L 402.909889 143.407485 
L 401.553506 142.874023 
L 399.886831 142.441157 
L 397.483028 142.080272 
L 394.865797 141.939761 
L 392.232005 142.038609 
L 389.748802 142.368025 
L 387.567478 142.907507 
L 386.163434 143.470672 
L 385.124001 144.124188 
L 384.610341 144.655844 
L 384.490424 144.838809 
L 384.490424 144.838809 
" clip-path="url(#pe891e20e65)" style="fill: none; stroke: #2f7f7b; stroke-opacity: 0.16; stroke-width: 1.2; stroke-linecap: square"/>
   </g>
   <g id="line2d_40">
    <path d="M 335.969129 166.348661 
L 335.39401 136.188471 
" clip-path="url(#pe891e20e65)" style="fill: none; stroke-dasharray: 1.6,1.6; stroke-dashoffset: 0; stroke: #2f7f7b; stroke-opacity: 0.26; stroke-width: 0.8"/>
   </g>
   <g id="line2d_41">
    <path d="M 344.530579 168.142324 
L 344.046982 137.496198 
" clip-path="url(#pe891e20e65)" style="fill: none; stroke-dasharray: 1.6,1.6; stroke-dashoffset: 0; stroke: #2f7f7b; stroke-opacity: 0.26; stroke-width: 0.8"/>
   </g>
   <g id="line2d_42">
    <path d="M 384.490424 144.838809 
L 384.482517 123.174238 
" clip-path="url(#pe891e20e65)" style="fill: none; stroke-dasharray: 1.6,1.6; stroke-dashoffset: 0; stroke: #2f7f7b; stroke-opacity: 0.26; stroke-width: 0.8"/>
   </g>
   <g id="line2d_43">
    <path d="M 351.500183 133.626721 
L 348.139623 133.996 
L 344.227569 134.672457 
L 338.646682 135.926281 
L 329.516618 138.169905 
L 326.982225 139.018674 
L 324.734583 140.012112 
L 323.225266 140.919268 
L 322.004144 141.907308 
L 321.095148 142.94489 
L 320.661823 143.753166 
L 320.477808 144.562254 
L 320.547249 145.353823 
L 320.876604 146.126205 
L 321.476862 146.869381 
L 322.32162 147.559122 
L 323.392371 148.190609 
L 325.138416 148.922737 
L 327.165285 149.498399 
L 329.393768 149.905693 
L 331.732953 150.118123 
L 334.670928 150.121395 
L 336.90949 149.936357 
L 338.956826 149.557012 
L 340.740033 148.979734 
L 341.875953 148.416606 
L 342.840632 147.747593 
L 343.88641 146.709181 
L 344.719628 145.545541 
L 345.905929 143.387147 
L 347.066944 141.34526 
L 348.379072 139.54582 
L 353.984545 132.336614 
L 354.839963 130.702375 
L 355.312324 129.366433 
L 355.511819 128.114938 
L 355.455 127.153119 
L 355.187158 126.278697 
L 354.704094 125.503625 
L 354.006353 124.838483 
L 353.09316 124.293649 
L 351.972674 123.8847 
L 350.691969 123.639719 
L 349.340305 123.582367 
L 348.019531 123.719903 
L 346.820552 124.03516 
L 345.808886 124.496336 
L 345.016786 125.067572 
L 344.451855 125.731257 
L 344.105105 126.49033 
L 343.948198 127.350363 
L 343.892746 129.31389 
L 344.04359 129.938992 
L 344.271729 130.168042 
L 344.818589 130.291597 
L 346.270283 130.208791 
L 348.512653 130.114045 
L 351.344635 130.222367 
L 355.184729 130.644053 
L 358.134326 131.146746 
L 361.111459 131.855368 
L 364.014937 132.749825 
L 367.290912 133.998396 
L 369.706902 135.207672 
L 371.36154 136.274698 
L 372.726604 137.41421 
L 373.776834 138.605837 
L 374.331945 139.534638 
L 374.684122 140.466239 
L 374.832771 141.391096 
L 374.768492 142.296324 
L 374.494816 143.162942 
L 374.03236 143.97224 
L 373.396084 144.700586 
L 372.328628 145.530008 
L 371.044014 146.164135 
L 369.596298 146.583596 
L 368.059208 146.77923 
L 366.506501 146.741867 
L 365.009813 146.477566 
L 363.635097 145.996507 
L 362.442974 145.315789 
L 361.70191 144.683314 
L 360.936446 143.693727 
L 360.408976 142.564102 
L 360.10894 141.356701 
L 360.036381 139.743799 
L 360.184753 139.104925 
L 360.907538 137.793403 
L 362.041964 135.567895 
L 363.067789 133.626396 
L 364.102701 132.176078 
L 365.325725 130.864477 
L 366.665353 129.769922 
L 367.647132 129.227048 
L 367.711892 129.247698 
L 367.677915 129.317123 
L 367.61468 129.388087 
L 367.61468 129.388087 
" clip-path="url(#pe891e20e65)" style="fill: none; stroke: #98a2b3; stroke-width: 1.8; stroke-linecap: round"/>
   </g>
   <g id="line2d_44">
    <path d="M 335.39401 136.188471 
L 339.32885 136.944453 
L 343.153489 137.4138 
L 349.721565 137.916829 
L 366.852267 138.961209 
L 373.060712 139.138493 
L 383.892111 139.40441 
L 389.604499 139.766258 
L 394.159107 140.286198 
L 398.117691 140.958367 
L 401.409319 141.723849 
L 404.480611 142.699157 
L 406.80241 143.656953 
L 408.820697 144.739305 
L 410.173559 145.683321 
L 411.253195 146.683779 
L 412.036876 147.728186 
L 412.41098 148.522569 
L 412.585111 149.329748 
L 412.560915 150.152416 
L 412.328621 150.971679 
L 411.886199 151.784113 
L 411.235105 152.588158 
L 410.368518 153.3576 
L 408.896804 154.318804 
L 407.101448 155.185575 
L 405.016226 155.915243 
L 402.081961 156.648556 
L 399.5391 157.070325 
L 396.21472 157.392349 
L 393.516402 157.461315 
L 390.204896 157.327078 
L 387.073014 156.983763 
L 384.239315 156.44566 
L 382.261025 155.884824 
L 380.591567 155.217752 
L 379.253543 154.459372 
L 378.271644 153.604066 
L 377.780544 152.913927 
L 377.505916 152.188488 
L 377.434521 151.424853 
L 377.610743 150.332178 
L 378.33405 148.171703 
L 378.80243 146.447077 
L 378.941455 145.007748 
L 378.785823 143.572794 
L 378.460115 142.529865 
L 377.67751 140.851679 
L 376.673062 139.251383 
L 374.562451 136.234686 
L 373.671519 134.511172 
L 373.185064 133.132896 
L 372.933044 131.811883 
L 372.918244 130.552364 
L 373.137372 129.359425 
L 373.589722 128.238677 
L 374.268829 127.195896 
L 375.171028 126.237089 
L 376.514549 125.199539 
L 378.400781 123.917217 
L 380.646296 122.838102 
L 382.728492 122.007377 
L 385.725733 120.957565 
L 387.600454 120.451346 
L 393.031143 119.420287 
L 400.991803 118.276666 
L 403.580227 117.898619 
L 404.869049 117.567833 
L 405.009677 117.422962 
L 404.989591 117.392925 
L 404.715118 117.266105 
L 403.876883 117.154009 
L 402.086683 117.125001 
L 399.089481 117.284998 
L 395.489154 117.755012 
L 392.818454 118.325992 
L 390.265643 119.096166 
L 387.993902 120.04291 
L 386.487719 120.914153 
L 385.347401 121.878587 
L 384.747022 122.646635 
L 384.482517 123.174238 
L 384.482517 123.174238 
" clip-path="url(#pe891e20e65)" style="fill: none; stroke: #2f7f7b; stroke-width: 2.3; stroke-linecap: round"/>
   </g>
   <g id="Path3DCollection_7">
    <path d="M 384.490424 146.96013 
C 385.053005 146.96013 385.592619 146.736614 385.990424 146.338809 
C 386.388228 145.941005 386.611744 145.40139 386.611744 144.838809 
C 386.611744 144.276229 386.388228 143.736614 385.990424 143.338809 
C 385.592619 142.941005 385.053005 142.717489 384.490424 142.717489 
C 383.927843 142.717489 383.388228 142.941005 382.990424 143.338809 
C 382.592619 143.736614 382.369103 144.276229 382.369103 144.838809 
C 382.369103 145.40139 382.592619 145.941005 382.990424 146.338809 
C 383.388228 146.736614 383.927843 146.96013 384.490424 146.96013 
z
" clip-path="url(#pe891e20e65)" style="fill: #2f7f7b; fill-opacity: 0.22"/>
   </g>
   <g id="text_33">
    <g id="patch_11">
     <path d="M 300.166637 77.41718 
L 423.232637 77.41718 
Q 425.248637 77.41718 425.248637 75.40118 
L 425.248637 61.175555 
Q 425.248637 59.159555 423.232637 59.159555 
L 300.166637 59.159555 
Q 298.150637 59.159555 298.150637 61.175555 
L 298.150637 75.40118 
Q 298.150637 77.41718 300.166637 77.41718 
z
" style="fill: #ffffff; stroke: #d0d5dd; stroke-linejoin: miter"/>
    </g>
    <text style="fill: #344054; font: 7.2px 'Arial', 'DejaVu Sans', 'Liberation Sans', sans-serif" transform="translate(300.166637 66.244805)">Favorable timeout</text>
    <text style="fill: #344054; font: 7.2px 'Arial', 'DejaVu Sans', 'Liberation Sans', sans-serif" transform="translate(300.166637 73.885805)">Damage margin +4.0, duration 102.4 s</text>
   </g>
   <g id="text_34">
    <text style="font: 700 11px 'Arial', 'DejaVu Sans', 'Liberation Sans', sans-serif; text-anchor: start" x="270.183284" y="50.101765" transform="rotate(-0 270.183284 50.101765)">b</text>
   </g>
   <g id="text_35">
    <text style="font: 8.8px 'Arial', 'DejaVu Sans', 'Liberation Sans', sans-serif; text-anchor: middle" x="383.061789" y="47.8" transform="rotate(-0 383.061789 47.8)">Mixed variant</text>
   </g>
   <g id="Path3DCollection_8">
    <path d="M 335.969129 168.469981 
C 336.53171 168.469981 337.071324 168.246465 337.469129 167.848661 
C 337.866934 167.450856 338.090449 166.911241 338.090449 166.348661 
C 338.090449 165.78608 337.866934 165.246465 337.469129 164.848661 
C 337.071324 164.450856 336.53171 164.22734 335.969129 164.22734 
C 335.406548 164.22734 334.866934 164.450856 334.469129 164.848661 
C 334.071324 165.246465 333.847809 165.78608 333.847809 166.348661 
C 333.847809 166.911241 334.071324 167.450856 334.469129 167.848661 
C 334.866934 168.246465 335.406548 168.469981 335.969129 168.469981 
z
" clip-path="url(#pe891e20e65)" style="fill: #2f7f7b; fill-opacity: 0.22"/>
   </g>
   <g id="Path3DCollection_9">
    <path d="M 344.530579 170.263644 
C 345.09316 170.263644 345.632774 170.040129 346.030579 169.642324 
C 346.428384 169.244519 346.651899 168.704905 346.651899 168.142324 
C 346.651899 167.579743 346.428384 167.040129 346.030579 166.642324 
C 345.632774 166.244519 345.09316 166.021004 344.530579 166.021004 
C 343.967998 166.021004 343.428384 166.244519 343.030579 166.642324 
C 342.632774 167.040129 342.409259 167.579743 342.409259 168.142324 
C 342.409259 168.704905 342.632774 169.244519 343.030579 169.642324 
C 343.428384 170.040129 343.967998 170.263644 344.530579 170.263644 
z
" clip-path="url(#pe891e20e65)" style="fill: #2f7f7b; fill-opacity: 0.22"/>
   </g>
   <g id="Path3DCollection_10">
    <defs>
     <path id="C2_0_9525a2fadc" d="M 0 2.645751 
C 0.701661 2.645751 1.374679 2.366978 1.870829 1.870829 
C 2.366978 1.374679 2.645751 0.701661 2.645751 -0 
C 2.645751 -0.701661 2.366978 -1.374679 1.870829 -1.870829 
C 1.374679 -2.366978 0.701661 -2.645751 0 -2.645751 
C -0.701661 -2.645751 -1.374679 -2.366978 -1.870829 -1.870829 
C -2.366978 -1.374679 -2.645751 -0.701661 -2.645751 0 
C -2.645751 0.701661 -2.366978 1.374679 -1.870829 1.870829 
C -1.374679 2.366978 -0.701661 2.645751 0 2.645751 
z
"/>
    </defs>
    <g clip-path="url(#pe891e20e65)">
     <use xlink:href="#C2_0_9525a2fadc" x="351.500183" y="133.626721" style="fill: #98a2b3; fill-opacity: 0.3; stroke: #ffffff; stroke-opacity: 0.3; stroke-width: 0.6"/>
    </g>
    <g clip-path="url(#pe891e20e65)">
     <use xlink:href="#C2_0_9525a2fadc" x="335.39401" y="136.188471" style="fill: #2f7f7b; stroke: #ffffff; stroke-width: 0.6"/>
    </g>
   </g>
   <g id="Path3DCollection_11">
    <defs>
     <path id="m0e5707d0c2" d="M 0 4.582576 
L 4.582576 0 
L 0 -4.582576 
L -4.582576 0 
z
" style="stroke: #ffffff; stroke-width: 0.6"/>
    </defs>
    <g clip-path="url(#pe891e20e65)">
     <use xlink:href="#m0e5707d0c2" x="344.046982" y="137.496198" style="fill: #2f7f7b; stroke: #ffffff; stroke-width: 0.6"/>
    </g>
   </g>
   <g id="Path3DCollection_12">
    <defs>
     <path id="C3_0_c21b25adb3" d="M -1.695582 3.391165 
L 0 1.695582 
L 1.695582 3.391165 
L 3.391165 1.695582 
L 1.695582 -0 
L 3.391165 -1.695582 
L 1.695582 -3.391165 
L 0 -1.695582 
L -1.695582 -3.391165 
L -3.391165 -1.695582 
L -1.695582 0 
L -3.391165 1.695582 
z
"/>
    </defs>
    <g clip-path="url(#pe891e20e65)">
     <use xlink:href="#C3_0_c21b25adb3" x="384.482517" y="123.174238" style="fill: #2f7f7b; fill-opacity: 0.3; stroke: #2f7f7b; stroke-opacity: 0.3; stroke-width: 0.8"/>
    </g>
    <g clip-path="url(#pe891e20e65)">
     <use xlink:href="#C3_0_c21b25adb3" x="367.61468" y="129.388087" style="fill: #98a2b3; stroke: #98a2b3; stroke-width: 0.8"/>
    </g>
   </g>
   <g id="Poly3DCollection_2">
    <defs>
     <path id="mb89095e4bf" d="M 335.969129 -281.401339 
L 382.757771 -263.934774 
L 383.237658 -263.760155 
L 383.736908 -263.593079 
L 384.252219 -263.433055 
L 384.785758 -263.28137 
L 385.333575 -263.137201 
L 385.893709 -263.000196 
L 386.468705 -262.871893 
L 387.055501 -262.751546 
L 387.655226 -262.640321 
L 388.264978 -262.537357 
L 388.885713 -262.443874 
L 389.514845 -262.359004 
L 390.153455 -262.284338 
L 390.798395 -262.218464 
L 391.448372 -262.160959 
L 392.104572 -262.113735 
L 392.764733 -262.075663 
L 393.428852 -262.047988 
L 394.094914 -262.029465 
L 394.762636 -262.021264 
L 395.430331 -262.02216 
L 396.097559 -262.033582 
L 396.762835 -262.054269 
L 397.425312 -262.085589 
L 398.083702 -262.12593 
L 398.737303 -262.174667 
L 399.385131 -262.233609 
L 400.026359 -262.301356 
L 400.659694 -262.378964 
L 401.284642 -262.465042 
L 401.899638 -262.560748 
L 402.504443 -262.664728 
L 403.097063 -262.778256 
L 403.67787 -262.899531 
L 404.246668 -263.028098 
L 404.800842 -263.165641 
L 405.340815 -263.310712 
L 405.864363 -263.464154 
L 406.37229 -263.62453 
L 406.862328 -263.792562 
L 407.335447 -263.966956 
L 407.788715 -264.148637 
L 408.223395 -264.336304 
L 408.636789 -264.530582 
L 409.031007 -264.730019 
L 409.406486 -264.93418 
L 409.75921 -265.144146 
L 410.091014 -265.358688 
L 410.399042 -265.578234 
L 410.685395 -265.801649 
L 410.947061 -266.029331 
L 411.186344 -266.260247 
L 411.39957 -266.494838 
L 411.589946 -266.731991 
L 411.759123 -266.971157 
L 411.903604 -267.21269 
L 412.02659 -267.455637 
L 412.12521 -267.700095 
L 412.202633 -267.945291 
L 412.255502 -268.191321 
L 412.287262 -268.437511 
L 412.293548 -268.68393 
L 412.278649 -268.929925 
L 412.24402 -269.175262 
L 404.78262 -302.362306 
L 404.743383 -302.536061 
L 404.685858 -302.709857 
L 404.609727 -302.883189 
L 404.515194 -303.055785 
L 404.395847 -303.226598 
L 404.255017 -303.39544 
L 404.091106 -303.5615 
L 403.902007 -303.724642 
L 403.690664 -303.885117 
L 403.453668 -304.041824 
L 403.194 -304.194693 
L 402.909889 -304.342515 
L 402.60402 -304.4852 
L 402.275269 -304.621445 
L 401.923822 -304.751354 
L 401.553506 -304.875977 
L 401.162617 -304.994081 
L 400.754451 -305.106193 
L 400.328606 -305.211152 
L 399.886831 -305.308843 
L 399.429924 -305.398233 
L 398.96053 -305.479857 
L 398.478968 -305.551918 
L 397.985718 -305.614605 
L 397.483028 -305.669728 
L 396.970981 -305.715738 
L 396.451724 -305.753538 
L 395.926607 -305.782106 
L 395.39722 -305.801333 
L 394.865797 -305.810239 
L 394.333909 -305.810452 
L 393.804247 -305.80016 
L 393.27728 -305.779402 
L 392.752402 -305.75032 
L 392.232005 -305.711391 
L 391.716822 -305.663694 
L 391.209057 -305.60695 
L 390.709791 -305.541541 
L 390.223334 -305.466286 
L 389.748802 -305.381975 
L 389.284053 -305.290139 
L 388.833015 -305.18955 
L 388.394489 -305.081665 
L 387.971955 -304.965978 
L 387.567478 -304.842493 
L 387.184441 -304.711233 
L 386.819509 -304.573924 
L 386.478871 -304.429931 
z
" style="stroke: #2f7f7b; stroke-opacity: 0.18; stroke-width: 0.6"/>
    </defs>
    <g clip-path="url(#pe891e20e65)">
     <use xlink:href="#mb89095e4bf" x="0" y="447.75" style="fill: #2f7f7b; fill-opacity: 0.06; stroke: #2f7f7b; stroke-opacity: 0.18; stroke-width: 0.6"/>
    </g>
   </g>
  </g>
  <g id="axes_3">
   <g id="patch_12">
    <path d="M 73.448578 402.3 
L 257.742156 402.3 
L 257.742156 269.297664 
L 73.448578 269.297664 
z
" style="fill: #ffffff"/>
   </g>
   <g id="patch_13">
    <path d="M 73.448578 402.3 
L 83.562979 402.3 
L 83.562979 269.297664 
L 73.448578 269.297664 
z
" clip-path="url(#p497b6fe578)" style="fill: #f2f4f7; stroke: #f2f4f7; stroke-linejoin: miter"/>
   </g>
   <g id="matplotlib.axis_1">
    <g id="xtick_25">
     <g id="line2d_45">
      <path d="M 73.448578 402.3 
L 73.448578 269.297664 
" clip-path="url(#p497b6fe578)" style="fill: none; stroke: #ececec; stroke-width: 0.65; stroke-linecap: square"/>
     </g>
     <g id="line2d_46">
      <defs>
       <path id="m8d29266c20" d="M 0 0 
L 0 3.5 
" style="stroke: #000000; stroke-width: 0.8"/>
      </defs>
      <g>
       <use xlink:href="#m8d29266c20" x="73.448578" y="402.3" style="stroke: #000000; stroke-width: 0.8"/>
      </g>
     </g>
     <g id="text_36">
      <text style="font: 8px 'Arial', 'DejaVu Sans', 'Liberation Sans', sans-serif; text-anchor: middle" x="73.448578" y="415.02625" transform="rotate(-0 73.448578 415.02625)">0</text>
     </g>
    </g>
    <g id="xtick_26">
     <g id="line2d_47">
      <path d="M 119.423127 402.3 
L 119.423127 269.297664 
" clip-path="url(#p497b6fe578)" style="fill: none; stroke: #ececec; stroke-width: 0.65; stroke-linecap: square"/>
     </g>
     <g id="line2d_48">
      <g>
       <use xlink:href="#m8d29266c20" x="119.423127" y="402.3" style="stroke: #000000; stroke-width: 0.8"/>
      </g>
     </g>
     <g id="text_37">
      <text style="font: 8px 'Arial', 'DejaVu Sans', 'Liberation Sans', sans-serif; text-anchor: middle" x="119.423127" y="415.02625" transform="rotate(-0 119.423127 415.02625)">20</text>
     </g>
    </g>
    <g id="xtick_27">
     <g id="line2d_49">
      <path d="M 165.397677 402.3 
L 165.397677 269.297664 
" clip-path="url(#p497b6fe578)" style="fill: none; stroke: #ececec; stroke-width: 0.65; stroke-linecap: square"/>
     </g>
     <g id="line2d_50">
      <g>
       <use xlink:href="#m8d29266c20" x="165.397677" y="402.3" style="stroke: #000000; stroke-width: 0.8"/>
      </g>
     </g>
     <g id="text_38">
      <text style="font: 8px 'Arial', 'DejaVu Sans', 'Liberation Sans', sans-serif; text-anchor: middle" x="165.397677" y="415.02625" transform="rotate(-0 165.397677 415.02625)">40</text>
     </g>
    </g>
    <g id="xtick_28">
     <g id="line2d_51">
      <path d="M 211.372226 402.3 
L 211.372226 269.297664 
" clip-path="url(#p497b6fe578)" style="fill: none; stroke: #ececec; stroke-width: 0.65; stroke-linecap: square"/>
     </g>
     <g id="line2d_52">
      <g>
       <use xlink:href="#m8d29266c20" x="211.372226" y="402.3" style="stroke: #000000; stroke-width: 0.8"/>
      </g>
     </g>
     <g id="text_39">
      <text style="font: 8px 'Arial', 'DejaVu Sans', 'Liberation Sans', sans-serif; text-anchor: middle" x="211.372226" y="415.02625" transform="rotate(-0 211.372226 415.02625)">60</text>
     </g>
    </g>
    <g id="xtick_29">
     <g id="line2d_53">
      <path d="M 257.346775 402.3 
L 257.346775 269.297664 
" clip-path="url(#p497b6fe578)" style="fill: none; stroke: #ececec; stroke-width: 0.65; stroke-linecap: square"/>
     </g>
     <g id="line2d_54">
      <g>
       <use xlink:href="#m8d29266c20" x="257.346775" y="402.3" style="stroke: #000000; stroke-width: 0.8"/>
      </g>
     </g>
     <g id="text_40">
      <text style="font: 8px 'Arial', 'DejaVu Sans', 'Liberation Sans', sans-serif; text-anchor: middle" x="257.346775" y="415.02625" transform="rotate(-0 257.346775 415.02625)">80</text>
     </g>
    </g>
    <g id="text_41">
     <text style="font: 8px 'Arial', 'DejaVu Sans', 'Liberation Sans', sans-serif; text-anchor: middle" x="165.595367" y="426.44" transform="rotate(-0 165.595367 426.44)">Time (s)</text>
    </g>
   </g>
   <g id="matplotlib.axis_2">
    <g id="ytick_1">
     <g id="line2d_55">
      <path d="M 73.448578 387.328201 
L 257.742156 387.328201 
" clip-path="url(#p497b6fe578)" style="fill: none; stroke: #ececec; stroke-width: 0.65; stroke-linecap: square"/>
     </g>
     <g id="line2d_56">
      <defs>
       <path id="m7597da726d" d="M 0 0 
L -3.5 0 
" style="stroke: #000000; stroke-width: 0.8"/>
      </defs>
      <g>
       <use xlink:href="#m7597da726d" x="73.448578" y="387.328201" style="stroke: #000000; stroke-width: 0.8"/>
      </g>
     </g>
     <g id="text_42">
      <text style="font: 8px 'Arial', 'DejaVu Sans', 'Liberation Sans', sans-serif; text-anchor: end" x="66.448578" y="390.191326" transform="rotate(-0 66.448578 390.191326)">−10000</text>
     </g>
    </g>
    <g id="ytick_2">
     <g id="line2d_57">
      <path d="M 73.448578 360.803932 
L 257.742156 360.803932 
" clip-path="url(#p497b6fe578)" style="fill: none; stroke: #ececec; stroke-width: 0.65; stroke-linecap: square"/>
     </g>
     <g id="line2d_58">
      <g>
       <use xlink:href="#m7597da726d" x="73.448578" y="360.803932" style="stroke: #000000; stroke-width: 0.8"/>
      </g>
     </g>
     <g id="text_43">
      <text style="font: 8px 'Arial', 'DejaVu Sans', 'Liberation Sans', sans-serif; text-anchor: end" x="66.448578" y="363.667057" transform="rotate(-0 66.448578 363.667057)">−5000</text>
     </g>
    </g>
    <g id="ytick_3">
     <g id="line2d_59">
      <path d="M 73.448578 334.279663 
L 257.742156 334.279663 
" clip-path="url(#p497b6fe578)" style="fill: none; stroke: #ececec; stroke-width: 0.65; stroke-linecap: square"/>
     </g>
     <g id="line2d_60">
      <g>
       <use xlink:href="#m7597da726d" x="73.448578" y="334.279663" style="stroke: #000000; stroke-width: 0.8"/>
      </g>
     </g>
     <g id="text_44">
      <text style="font: 8px 'Arial', 'DejaVu Sans', 'Liberation Sans', sans-serif; text-anchor: end" x="66.448578" y="337.142788" transform="rotate(-0 66.448578 337.142788)">0</text>
     </g>
    </g>
    <g id="ytick_4">
     <g id="line2d_61">
      <path d="M 73.448578 307.755394 
L 257.742156 307.755394 
" clip-path="url(#p497b6fe578)" style="fill: none; stroke: #ececec; stroke-width: 0.65; stroke-linecap: square"/>
     </g>
     <g id="line2d_62">
      <g>
       <use xlink:href="#m7597da726d" x="73.448578" y="307.755394" style="stroke: #000000; stroke-width: 0.8"/>
      </g>
     </g>
     <g id="text_45">
      <text style="font: 8px 'Arial', 'DejaVu Sans', 'Liberation Sans', sans-serif; text-anchor: end" x="66.448578" y="310.618519" transform="rotate(-0 66.448578 310.618519)">5000</text>
     </g>
    </g>
    <g id="ytick_5">
     <g id="line2d_63">
      <path d="M 73.448578 281.231126 
L 257.742156 281.231126 
" clip-path="url(#p497b6fe578)" style="fill: none; stroke: #ececec; stroke-width: 0.65; stroke-linecap: square"/>
     </g>
     <g id="line2d_64">
      <g>
       <use xlink:href="#m7597da726d" x="73.448578" y="281.231126" style="stroke: #000000; stroke-width: 0.8"/>
      </g>
     </g>
     <g id="text_46">
      <text style="font: 8px 'Arial', 'DejaVu Sans', 'Liberation Sans', sans-serif; text-anchor: end" x="66.448578" y="284.094251" transform="rotate(-0 66.448578 284.094251)">10000</text>
     </g>
    </g>
    <g id="text_47">
     <!-- $d_{\mathrm{fwd}}(t)$ (m) -->
     <g transform="translate(33.772328 355.318832) rotate(-90)">
      <text>
       <tspan style="font: oblique 8px 'DejaVu Sans'" x="0 18.524219" y="-0.921875">dt</tspan>
       <tspan style="font: 5.6px 'DejaVu Sans'" x="5.078125 7.049609 11.629687" y="0.390625">fwd</tspan>
       <tspan style="font: 8px 'DejaVu Sans'" x="15.403125 21.660937" y="-0.921875">()</tspan>
       <tspan style="font: 8px 'Arial'" x="24.782031 27.004687 29.66875 36.332813" y="-0.921875"> (m)</tspan>
      </text>
     </g>
    </g>
   </g>
   <g id="line2d_65">
    <path d="M 73.448578 334.279663 
L 257.742156 334.279663 
" clip-path="url(#p497b6fe578)" style="fill: none; stroke-dasharray: 3.33,1.44; stroke-dashoffset: 0; stroke: #4b5563; stroke-width: 0.9"/>
   </g>
   <g id="line2d_66">
    <path d="M 83.562979 402.3 
L 83.562979 269.297664 
" clip-path="url(#p497b6fe578)" style="fill: none; stroke-dasharray: 1,1.65; stroke-dashoffset: 0; stroke: #6b7280"/>
   </g>
   <g id="line2d_67">
    <path d="M 73.908324 330.749868 
L 74.827815 330.84798 
L 76.666797 331.330254 
L 77.586288 331.734807 
L 78.046033 332.672111 
L 79.42527 333.486415 
L 80.804506 334.648117 
L 83.103233 337.007235 
L 85.861706 340.015754 
L 87.240943 341.890404 
L 89.53967 345.434546 
L 92.298143 349.651568 
L 93.67738 351.417277 
L 95.056616 352.853785 
L 95.976107 353.702704 
L 96.435853 353.860745 
L 96.895598 353.876086 
L 97.355344 354.033668 
L 97.815089 354.385259 
L 98.274835 354.257139 
L 98.73458 353.97182 
L 99.194326 353.871769 
L 99.654071 354.008722 
L 100.113817 353.836326 
L 100.573562 353.001517 
L 101.033308 352.721369 
L 101.493053 352.791315 
L 101.952799 352.611148 
L 102.87229 350.501973 
L 103.791781 349.626854 
L 104.251526 348.723372 
L 104.711272 347.250688 
L 105.171017 346.179457 
L 105.630763 344.727937 
L 106.090508 330.526781 
L 106.550254 328.99871 
L 107.009999 340.622944 
L 107.92949 337.990485 
L 108.848981 334.404412 
L 112.067199 321.85527 
L 112.98669 318.697148 
L 114.825672 311.362889 
L 117.1244 304.322303 
L 117.584145 303.010665 
L 118.043891 301.317385 
L 118.503636 300.17684 
L 119.423127 298.687066 
L 120.342618 296.680436 
L 121.721855 294.537416 
L 124.020582 291.935401 
L 124.480328 291.608584 
L 124.940073 291.422971 
L 125.399819 291.609301 
L 125.859564 291.630242 
L 126.31931 291.526146 
L 126.779055 291.611735 
L 127.698546 292.219749 
L 128.158292 292.433417 
L 129.077783 293.473302 
L 129.537528 293.606089 
L 129.997274 293.909428 
L 132.296001 296.858621 
L 133.675238 299.036724 
L 134.594729 300.622701 
L 135.51422 302.654781 
L 136.893456 305.392553 
L 138.732438 309.651437 
L 139.651929 312.147758 
L 143.329893 324.66334 
L 144.249384 327.588215 
L 145.168875 330.031952 
L 145.62862 330.88242 
L 147.927348 332.915854 
L 148.846839 333.216855 
L 150.685821 333.398823 
L 152.065057 333.505221 
L 152.524803 332.039776 
L 156.202767 332.024717 
L 158.041749 332.126326 
L 158.501494 335.748386 
L 160.340476 336.396593 
L 162.639204 336.904211 
L 165.397677 337.53477 
L 166.776913 338.02238 
L 168.615895 338.965388 
L 170.454877 340.219847 
L 174.592586 343.253012 
L 177.351059 345.210457 
L 178.730296 346.45893 
L 180.109532 348.000175 
L 180.569278 348.579966 
L 181.029023 347.065169 
L 183.787496 350.485038 
L 184.706987 351.069032 
L 185.626478 352.199679 
L 186.086224 352.778459 
L 186.545969 353.174617 
L 187.005715 353.13215 
L 187.46546 353.210646 
L 189.304442 354.343013 
L 190.223933 354.668961 
L 190.683679 354.615538 
L 191.143424 354.340839 
L 191.60317 354.199775 
L 192.522661 353.58704 
L 193.901897 351.131355 
L 195.281134 348.052167 
L 197.579861 341.742989 
L 198.959097 337.393797 
L 201.71757 327.518611 
L 204.935789 315.272264 
L 205.395534 313.022249 
L 206.315025 307.597353 
L 207.234516 303.827866 
L 208.154007 300.509987 
L 209.992989 293.061551 
L 210.452735 291.745728 
L 211.372226 288.304397 
L 212.291717 285.565567 
L 213.211208 283.401056 
L 213.670953 282.619644 
L 214.130699 281.58649 
L 215.969681 278.879815 
L 216.429426 278.496304 
L 217.348917 278.508962 
L 219.187899 278.69582 
L 219.647645 279.21328 
L 221.026881 281.548505 
L 221.486627 282.049741 
L 221.946372 282.739184 
L 222.865863 285.6992 
L 224.2451 289.28622 
L 225.164591 293.65226 
L 225.624336 293.693459 
L 226.543827 297.309259 
L 227.003573 298.095735 
L 227.463318 300.616213 
L 227.923063 302.029521 
L 228.382809 302.768245 
L 228.842554 306.422785 
L 229.3023 309.065074 
L 229.762045 310.912461 
L 230.221791 313.800545 
L 230.681536 315.331973 
L 231.601027 321.547368 
L 232.060773 323.043842 
L 232.980264 329.662409 
L 233.440009 332.540262 
L 233.899755 336.724269 
L 234.3595 338.528271 
L 234.819246 341.275261 
L 235.278991 344.726029 
L 235.738737 345.950821 
L 236.658228 351.689478 
L 237.117973 352.299453 
L 238.037464 357.028823 
L 238.49721 357.132212 
L 238.956955 359.065672 
L 239.416701 360.448103 
L 239.876446 360.6419 
L 240.336192 362.132598 
L 240.795937 362.960167 
L 241.255683 363.233825 
L 241.715428 364.369817 
L 242.634919 365.36724 
L 243.094665 365.581467 
L 243.55441 365.448282 
L 244.014156 365.55671 
L 245.393392 364.198512 
L 246.772629 361.935283 
L 247.69212 359.643514 
L 248.151865 358.70586 
L 249.990847 353.441219 
L 250.450593 351.649269 
L 253.209066 343.458442 
L 253.668811 341.996183 
L 254.128557 340.922668 
L 254.128557 340.922668 
" clip-path="url(#p497b6fe578)" style="fill: none; stroke: #b64342; stroke-opacity: 0.22; stroke-linecap: square"/>
   </g>
   <g id="patch_14">
    <path d="M 73.448578 402.3 
L 73.448578 269.297664 
" style="fill: none; stroke: #000000; stroke-width: 0.8; stroke-linejoin: miter; stroke-linecap: square"/>
   </g>
   <g id="patch_15">
    <path d="M 73.448578 402.3 
L 257.742156 402.3 
" style="fill: none; stroke: #000000; stroke-width: 0.8; stroke-linejoin: miter; stroke-linecap: square"/>
   </g>
   <g id="line2d_68">
    <path d="M 73.908324 330.787225 
L 75.28756 330.956769 
L 76.666797 331.361346 
L 78.046033 332.399247 
L 82.183742 336.036658 
L 85.401961 339.488058 
L 86.781197 341.261502 
L 88.620179 343.991285 
L 92.298143 349.614048 
L 93.67738 351.402319 
L 95.056616 352.863765 
L 95.976107 353.516862 
L 96.895598 353.971692 
L 97.815089 354.104794 
L 98.73458 354.098942 
L 99.194326 353.989155 
L 101.033308 352.992335 
L 102.412544 351.50636 
L 103.332035 350.095913 
L 104.711272 347.301662 
L 105.630763 339.536715 
L 107.009999 335.509372 
L 107.92949 337.75766 
L 108.848981 334.337224 
L 111.607454 323.6368 
L 113.446436 316.642754 
L 114.825672 311.427983 
L 117.584145 302.90066 
L 118.963382 299.458842 
L 120.342618 296.833783 
L 121.262109 295.274254 
L 122.641346 293.48302 
L 124.020582 292.083521 
L 124.940073 291.6413 
L 125.859564 291.560079 
L 127.238801 291.946656 
L 128.618037 292.946331 
L 129.997274 294.096567 
L 130.916765 295.025175 
L 132.296001 296.881094 
L 133.675238 299.062311 
L 135.51422 302.57174 
L 137.812947 307.480072 
L 139.192184 310.990934 
L 140.57142 315.199303 
L 144.709129 328.708787 
L 145.62862 330.568708 
L 146.548111 331.760249 
L 147.467602 332.523828 
L 148.387093 333.027874 
L 149.306584 333.260067 
L 151.145566 333.431573 
L 153.444294 332.015311 
L 156.662512 332.047175 
L 157.122258 332.07051 
L 158.96124 335.235408 
L 159.420985 336.089461 
L 161.259967 336.614595 
L 165.857422 337.695755 
L 167.696404 338.473482 
L 169.535386 339.577731 
L 172.753604 341.957989 
L 178.27055 346.043259 
L 179.649787 347.486241 
L 181.488769 348.057415 
L 181.948514 348.220925 
L 183.327751 349.897877 
L 186.086224 352.572444 
L 187.005715 353.164228 
L 189.764188 354.471878 
L 190.683679 354.463904 
L 191.60317 354.13363 
L 192.522661 353.31108 
L 193.442152 351.939756 
L 194.821388 349.068365 
L 196.200625 345.582208 
L 198.039606 340.293091 
L 199.878588 334.125201 
L 202.177316 325.884621 
L 204.476043 317.115546 
L 208.154007 300.346582 
L 210.452735 291.550727 
L 211.831971 287.007369 
L 212.751462 284.563104 
L 214.130699 281.695156 
L 215.05019 280.134216 
L 215.969681 279.036956 
L 216.429426 278.7383 
L 217.348917 278.529554 
L 218.268408 278.59748 
L 218.728154 278.738344 
L 219.187899 279.032817 
L 220.10739 280.084107 
L 221.026881 281.460072 
L 221.946372 283.266106 
L 222.865863 285.560072 
L 223.785354 288.357257 
L 225.624336 294.372301 
L 226.543827 297.037681 
L 227.923063 301.9865 
L 229.762045 311.106568 
L 231.601027 321.018826 
L 235.738737 346.514538 
L 237.117973 352.948906 
L 238.49721 357.694097 
L 239.876446 361.049688 
L 241.715428 364.156858 
L 242.634919 365.12401 
L 243.094665 365.361388 
L 243.55441 365.419885 
L 244.014156 365.280567 
L 244.933647 364.61364 
L 245.853138 363.393007 
L 246.772629 361.687606 
L 247.69212 359.68117 
L 249.531102 354.640006 
L 253.209066 343.508386 
L 254.128557 342.125764 
L 254.128557 342.125764 
" clip-path="url(#p497b6fe578)" style="fill: none; stroke: #b64342; stroke-width: 2; stroke-linecap: square"/>
   </g>
   <g id="text_48">
    <text style="fill: #475467; font: 7px 'Arial', 'DejaVu Sans', 'Liberation Sans', sans-serif; text-anchor: start" x="78.977385" y="282.373585" transform="rotate(-0 78.977385 282.373585)">Shaded: pre-merge</text>
   </g>
   <g id="text_49">
    <text style="fill: #6b7280; font: 7px 'Arial', 'DejaVu Sans', 'Liberation Sans', sans-serif; text-anchor: start" x="93.562979" y="295.304532" transform="rotate(-0 93.562979 295.304532)">First pass</text>
   </g>
   <g id="text_50">
    <text style="font: 700 11px 'Arial', 'DejaVu Sans', 'Liberation Sans', sans-serif; text-anchor: start" x="47.647477" y="261.806789" transform="rotate(-0 47.647477 261.806789)">c</text>
   </g>
  </g>
  <g id="axes_4">
   <g id="patch_16">
    <path d="M 290.915 402.3 
L 475.208578 402.3 
L 475.208578 269.297664 
L 290.915 269.297664 
z
" style="fill: #ffffff"/>
   </g>
   <g id="patch_17">
    <path d="M 290.915 402.3 
L 298.678593 402.3 
L 298.678593 269.297664 
L 290.915 269.297664 
z
" clip-path="url(#p6a46eb0528)" style="fill: #f2f4f7; stroke: #f2f4f7; stroke-linejoin: miter"/>
   </g>
   <g id="matplotlib.axis_3">
    <g id="xtick_30">
     <g id="line2d_69">
      <path d="M 290.915 402.3 
L 290.915 269.297664 
" clip-path="url(#p6a46eb0528)" style="fill: none; stroke: #ececec; stroke-width: 0.65; stroke-linecap: square"/>
     </g>
     <g id="line2d_70">
      <g>
       <use xlink:href="#m8d29266c20" x="290.915" y="402.3" style="stroke: #000000; stroke-width: 0.8"/>
      </g>
     </g>
     <g id="text_51">
      <text style="font: 8px 'Arial', 'DejaVu Sans', 'Liberation Sans', sans-serif; text-anchor: middle" x="290.915" y="415.02625" transform="rotate(-0 290.915 415.02625)">0</text>
     </g>
    </g>
    <g id="xtick_31">
     <g id="line2d_71">
      <path d="M 326.204058 402.3 
L 326.204058 269.297664 
" clip-path="url(#p6a46eb0528)" style="fill: none; stroke: #ececec; stroke-width: 0.65; stroke-linecap: square"/>
     </g>
     <g id="line2d_72">
      <g>
       <use xlink:href="#m8d29266c20" x="326.204058" y="402.3" style="stroke: #000000; stroke-width: 0.8"/>
      </g>
     </g>
     <g id="text_52">
      <text style="font: 8px 'Arial', 'DejaVu Sans', 'Liberation Sans', sans-serif; text-anchor: middle" x="326.204058" y="415.02625" transform="rotate(-0 326.204058 415.02625)">20</text>
     </g>
    </g>
    <g id="xtick_32">
     <g id="line2d_73">
      <path d="M 361.493117 402.3 
L 361.493117 269.297664 
" clip-path="url(#p6a46eb0528)" style="fill: none; stroke: #ececec; stroke-width: 0.65; stroke-linecap: square"/>
     </g>
     <g id="line2d_74">
      <g>
       <use xlink:href="#m8d29266c20" x="361.493117" y="402.3" style="stroke: #000000; stroke-width: 0.8"/>
      </g>
     </g>
     <g id="text_53">
      <text style="font: 8px 'Arial', 'DejaVu Sans', 'Liberation Sans', sans-serif; text-anchor: middle" x="361.493117" y="415.02625" transform="rotate(-0 361.493117 415.02625)">40</text>
     </g>
    </g>
    <g id="xtick_33">
     <g id="line2d_75">
      <path d="M 396.782175 402.3 
L 396.782175 269.297664 
" clip-path="url(#p6a46eb0528)" style="fill: none; stroke: #ececec; stroke-width: 0.65; stroke-linecap: square"/>
     </g>
     <g id="line2d_76">
      <g>
       <use xlink:href="#m8d29266c20" x="396.782175" y="402.3" style="stroke: #000000; stroke-width: 0.8"/>
      </g>
     </g>
     <g id="text_54">
      <text style="font: 8px 'Arial', 'DejaVu Sans', 'Liberation Sans', sans-serif; text-anchor: middle" x="396.782175" y="415.02625" transform="rotate(-0 396.782175 415.02625)">60</text>
     </g>
    </g>
    <g id="xtick_34">
     <g id="line2d_77">
      <path d="M 432.071233 402.3 
L 432.071233 269.297664 
" clip-path="url(#p6a46eb0528)" style="fill: none; stroke: #ececec; stroke-width: 0.65; stroke-linecap: square"/>
     </g>
     <g id="line2d_78">
      <g>
       <use xlink:href="#m8d29266c20" x="432.071233" y="402.3" style="stroke: #000000; stroke-width: 0.8"/>
      </g>
     </g>
     <g id="text_55">
      <text style="font: 8px 'Arial', 'DejaVu Sans', 'Liberation Sans', sans-serif; text-anchor: middle" x="432.071233" y="415.02625" transform="rotate(-0 432.071233 415.02625)">80</text>
     </g>
    </g>
    <g id="xtick_35">
     <g id="line2d_79">
      <path d="M 467.360292 402.3 
L 467.360292 269.297664 
" clip-path="url(#p6a46eb0528)" style="fill: none; stroke: #ececec; stroke-width: 0.65; stroke-linecap: square"/>
     </g>
     <g id="line2d_80">
      <g>
       <use xlink:href="#m8d29266c20" x="467.360292" y="402.3" style="stroke: #000000; stroke-width: 0.8"/>
      </g>
     </g>
     <g id="text_56">
      <text style="font: 8px 'Arial', 'DejaVu Sans', 'Liberation Sans', sans-serif; text-anchor: middle" x="467.360292" y="415.02625" transform="rotate(-0 467.360292 415.02625)">100</text>
     </g>
    </g>
    <g id="text_57">
     <text style="font: 8px 'Arial', 'DejaVu Sans', 'Liberation Sans', sans-serif; text-anchor: middle" x="383.061789" y="426.44" transform="rotate(-0 383.061789 426.44)">Time (s)</text>
    </g>
   </g>
   <g id="matplotlib.axis_4">
    <g id="ytick_6">
     <g id="line2d_81">
      <path d="M 290.915 387.328201 
L 475.208578 387.328201 
" clip-path="url(#p6a46eb0528)" style="fill: none; stroke: #ececec; stroke-width: 0.65; stroke-linecap: square"/>
     </g>
     <g id="line2d_82">
      <g>
       <use xlink:href="#m7597da726d" x="290.915" y="387.328201" style="stroke: #000000; stroke-width: 0.8"/>
      </g>
     </g>
     <g id="text_58">
      <text style="font: 8px 'Arial', 'DejaVu Sans', 'Liberation Sans', sans-serif; text-anchor: end" x="283.915" y="390.191326" transform="rotate(-0 283.915 390.191326)">−10000</text>
     </g>
    </g>
    <g id="ytick_7">
     <g id="line2d_83">
      <path d="M 290.915 360.803932 
L 475.208578 360.803932 
" clip-path="url(#p6a46eb0528)" style="fill: none; stroke: #ececec; stroke-width: 0.65; stroke-linecap: square"/>
     </g>
     <g id="line2d_84">
      <g>
       <use xlink:href="#m7597da726d" x="290.915" y="360.803932" style="stroke: #000000; stroke-width: 0.8"/>
      </g>
     </g>
     <g id="text_59">
      <text style="font: 8px 'Arial', 'DejaVu Sans', 'Liberation Sans', sans-serif; text-anchor: end" x="283.915" y="363.667057" transform="rotate(-0 283.915 363.667057)">−5000</text>
     </g>
    </g>
    <g id="ytick_8">
     <g id="line2d_85">
      <path d="M 290.915 334.279663 
L 475.208578 334.279663 
" clip-path="url(#p6a46eb0528)" style="fill: none; stroke: #ececec; stroke-width: 0.65; stroke-linecap: square"/>
     </g>
     <g id="line2d_86">
      <g>
       <use xlink:href="#m7597da726d" x="290.915" y="334.279663" style="stroke: #000000; stroke-width: 0.8"/>
      </g>
     </g>
     <g id="text_60">
      <text style="font: 8px 'Arial', 'DejaVu Sans', 'Liberation Sans', sans-serif; text-anchor: end" x="283.915" y="337.142788" transform="rotate(-0 283.915 337.142788)">0</text>
     </g>
    </g>
    <g id="ytick_9">
     <g id="line2d_87">
      <path d="M 290.915 307.755394 
L 475.208578 307.755394 
" clip-path="url(#p6a46eb0528)" style="fill: none; stroke: #ececec; stroke-width: 0.65; stroke-linecap: square"/>
     </g>
     <g id="line2d_88">
      <g>
       <use xlink:href="#m7597da726d" x="290.915" y="307.755394" style="stroke: #000000; stroke-width: 0.8"/>
      </g>
     </g>
     <g id="text_61">
      <text style="font: 8px 'Arial', 'DejaVu Sans', 'Liberation Sans', sans-serif; text-anchor: end" x="283.915" y="310.618519" transform="rotate(-0 283.915 310.618519)">5000</text>
     </g>
    </g>
    <g id="ytick_10">
     <g id="line2d_89">
      <path d="M 290.915 281.231126 
L 475.208578 281.231126 
" clip-path="url(#p6a46eb0528)" style="fill: none; stroke: #ececec; stroke-width: 0.65; stroke-linecap: square"/>
     </g>
     <g id="line2d_90">
      <g>
       <use xlink:href="#m7597da726d" x="290.915" y="281.231126" style="stroke: #000000; stroke-width: 0.8"/>
      </g>
     </g>
     <g id="text_62">
      <text style="font: 8px 'Arial', 'DejaVu Sans', 'Liberation Sans', sans-serif; text-anchor: end" x="283.915" y="284.094251" transform="rotate(-0 283.915 284.094251)">10000</text>
     </g>
    </g>
   </g>
   <g id="line2d_91">
    <path d="M 290.915 334.279663 
L 475.208578 334.279663 
" clip-path="url(#p6a46eb0528)" style="fill: none; stroke-dasharray: 3.33,1.44; stroke-dashoffset: 0; stroke: #4b5563; stroke-width: 0.9"/>
   </g>
   <g id="line2d_92">
    <path d="M 298.678593 402.3 
L 298.678593 269.297664 
" clip-path="url(#p6a46eb0528)" style="fill: none; stroke-dasharray: 1,1.65; stroke-dashoffset: 0; stroke: #6b7280"/>
   </g>
   <g id="line2d_93">
    <path d="M 291.267891 330.666193 
L 292.326562 330.889525 
L 293.385234 331.275833 
L 294.091015 331.685625 
L 294.443906 332.585914 
L 295.502578 333.392741 
L 296.561249 334.582606 
L 299.384374 338.333336 
L 300.795936 340.754408 
L 302.560389 344.333608 
L 305.030623 349.425808 
L 306.442186 351.846163 
L 307.500858 353.271064 
L 308.206639 354.099699 
L 308.559529 354.250599 
L 308.91242 354.254189 
L 309.26531 354.400319 
L 309.618201 354.749536 
L 309.971092 354.615835 
L 310.323982 354.3145 
L 310.676873 345.944284 
L 311.029763 345.757858 
L 311.382654 345.250584 
L 311.735545 343.9752 
L 312.088435 343.121625 
L 312.794216 342.170321 
L 313.499997 339.60489 
L 314.205779 338.071881 
L 314.558669 336.576191 
L 315.26445 333.074669 
L 316.676013 326.304926 
L 318.440466 316.32415 
L 319.146247 311.803688 
L 321.26359 300.412289 
L 322.675153 294.049782 
L 323.733824 290.652232 
L 324.439606 288.863239 
L 325.145387 287.480029 
L 325.851168 286.810718 
L 326.556949 286.646683 
L 326.90984 286.753589 
L 327.26273 286.987495 
L 327.968511 287.894135 
L 328.674293 289.415645 
L 329.380074 291.548175 
L 331.144527 299.380509 
L 331.850308 303.258201 
L 336.084995 329.918964 
L 337.496557 336.691854 
L 338.202338 338.90337 
L 338.908119 340.754344 
L 339.613901 341.511672 
L 339.966791 341.657125 
L 340.319682 341.38879 
L 341.025463 339.839446 
L 341.731244 336.88709 
L 342.789916 330.544467 
L 343.848588 323.894555 
L 344.201478 322.103691 
L 344.907259 321.251033 
L 345.26015 320.325907 
L 345.965931 320.595905 
L 346.318822 320.468822 
L 346.671712 320.155073 
L 347.024603 320.666514 
L 347.377493 321.776642 
L 348.083275 325.130614 
L 348.789056 329.522735 
L 351.25929 347.171956 
L 352.670852 354.827944 
L 353.729524 358.912642 
L 354.435305 360.846502 
L 355.141086 362.234466 
L 355.846867 362.956526 
L 356.552649 363.133212 
L 356.905539 363.027068 
L 357.61132 362.429154 
L 358.669992 360.879919 
L 359.728664 358.345408 
L 360.787336 355.289623 
L 363.25757 346.95702 
L 365.374913 339.867726 
L 367.845147 333.70605 
L 368.550928 332.540476 
L 369.6096 331.405122 
L 370.315381 331.075691 
L 370.668272 333.698923 
L 372.432725 333.506103 
L 375.255849 333.221391 
L 375.60874 330.681326 
L 376.314521 331.294918 
L 377.726084 332.921133 
L 379.137646 334.431945 
L 379.843427 334.913101 
L 380.549208 335.118589 
L 381.254989 335.009517 
L 381.960771 334.594613 
L 383.019442 333.501396 
L 385.136786 331.052188 
L 385.842567 330.718785 
L 386.548348 330.706168 
L 387.95991 331.722987 
L 388.312801 332.05473 
L 388.665692 332.572492 
L 390.430145 332.623721 
L 392.547488 333.002892 
L 395.370613 333.555588 
L 395.723503 332.944786 
L 398.193737 330.546887 
L 400.311081 328.485286 
L 402.075534 327.051964 
L 403.839987 325.942179 
L 404.898658 325.45492 
L 406.310221 325.026648 
L 407.721783 324.877358 
L 408.427564 324.921687 
L 409.839127 325.243777 
L 410.544908 325.485326 
L 411.250689 326.882441 
L 411.95647 328.296293 
L 412.662251 329.086712 
L 414.426704 330.573124 
L 415.132485 331.467292 
L 415.838266 333.195026 
L 416.544048 335.041017 
L 418.661391 339.189713 
L 420.072953 343.276502 
L 421.837406 348.208826 
L 422.896078 351.55574 
L 425.366312 358.131013 
L 426.777875 362.01917 
L 429.248109 368.007947 
L 431.012562 371.866225 
L 431.718343 373.21422 
L 432.777014 374.95649 
L 433.835686 376.787816 
L 434.541467 377.850535 
L 435.247249 379.171144 
L 435.95303 379.870213 
L 436.30592 380.138472 
L 437.011701 381.200963 
L 438.070373 383.207719 
L 438.423264 383.455489 
L 439.129045 383.709848 
L 439.481936 384.033738 
L 439.834826 384.118303 
L 440.187717 383.845481 
L 440.540607 382.757066 
L 440.893498 381.212198 
L 441.246388 378.94154 
L 441.599279 375.33223 
L 442.30506 361.927491 
L 443.716623 330.820166 
L 444.069513 341.669982 
L 444.422404 391.675666 
L 444.775294 393.127425 
L 445.833966 387.003758 
L 446.186857 383.606904 
L 446.892638 373.505284 
L 447.95131 355.810681 
L 449.009981 341.446439 
L 449.715762 323.900771 
L 450.068653 320.078187 
L 450.774434 319.114306 
L 451.127325 316.956755 
L 451.833106 314.740707 
L 452.538887 316.759359 
L 452.891778 318.858886 
L 453.597559 326.402916 
L 454.30334 336.59068 
L 455.714902 357.133017 
L 456.420683 364.860465 
L 457.126465 370.649882 
L 457.832246 374.639131 
L 458.538027 377.042673 
L 458.890918 377.599121 
L 459.243808 377.938491 
L 459.596699 377.878671 
L 460.30248 376.758331 
L 460.65537 375.959053 
L 461.361152 373.632058 
L 462.066933 370.272062 
L 462.772714 366.510294 
L 463.478495 361.955052 
L 465.242948 350.903462 
L 465.948729 346.476569 
L 467.360292 339.102205 
L 468.066073 335.92335 
L 469.124744 332.478181 
L 469.477635 331.7645 
L 469.830526 334.411897 
L 471.594979 334.543889 
L 471.594979 334.543889 
" clip-path="url(#p6a46eb0528)" style="fill: none; stroke: #2f7f7b; stroke-opacity: 0.22; stroke-linecap: square"/>
   </g>
   <g id="patch_18">
    <path d="M 290.915 402.3 
L 290.915 269.297664 
" style="fill: none; stroke: #000000; stroke-width: 0.8; stroke-linejoin: miter; stroke-linecap: square"/>
   </g>
   <g id="patch_19">
    <path d="M 290.915 402.3 
L 475.208578 402.3 
" style="fill: none; stroke: #000000; stroke-width: 0.8; stroke-linejoin: miter; stroke-linecap: square"/>
   </g>
   <g id="line2d_94">
    <path d="M 291.267891 330.724459 
L 292.326562 330.903693 
L 293.385234 331.308373 
L 294.796797 332.710999 
L 295.855468 333.791549 
L 297.267031 335.485703 
L 299.384374 338.37107 
L 300.795936 340.783905 
L 302.91328 345.082276 
L 305.383514 350.046939 
L 306.795076 352.343616 
L 307.853748 353.651852 
L 308.91242 354.350868 
L 309.618201 354.466876 
L 310.676873 349.176612 
L 311.382654 344.80991 
L 312.088435 343.441946 
L 313.852888 338.797465 
L 314.91156 334.757003 
L 316.676013 326.233322 
L 318.087575 318.272444 
L 320.204919 305.992366 
L 321.969371 297.090147 
L 323.028043 292.93085 
L 324.086715 289.822783 
L 324.792496 288.262053 
L 325.498277 287.244701 
L 325.851168 286.939961 
L 326.204058 286.794673 
L 326.556949 286.775098 
L 326.90984 286.887548 
L 327.26273 287.130974 
L 327.968511 288.051045 
L 328.674293 289.571385 
L 329.380074 291.746201 
L 330.085855 294.462166 
L 331.144527 299.455389 
L 332.556089 307.671792 
L 336.084995 329.75177 
L 337.143666 335.000892 
L 338.202338 338.845155 
L 338.908119 340.449945 
L 339.26101 341.000696 
L 339.613901 341.288212 
L 339.966791 341.270755 
L 340.319682 341.012818 
L 340.672572 340.394016 
L 341.025463 339.440009 
L 341.731244 336.567046 
L 342.789916 330.4804 
L 343.848588 324.377051 
L 344.554369 321.85914 
L 344.907259 321.164051 
L 345.965931 320.392964 
L 346.318822 320.461085 
L 346.671712 320.732591 
L 347.024603 321.271882 
L 347.377493 322.204241 
L 348.083275 325.364164 
L 349.141946 332.178151 
L 351.25929 347.001927 
L 352.317962 352.945916 
L 353.376633 357.550085 
L 354.082414 359.818183 
L 354.788196 361.475824 
L 355.493977 362.526402 
L 356.199758 362.980701 
L 356.552649 363.001819 
L 356.905539 362.896345 
L 357.61132 362.310458 
L 358.317101 361.33974 
L 359.022883 359.985216 
L 360.081554 357.327708 
L 361.493117 353.021431 
L 366.433585 336.986461 
L 367.492257 334.473324 
L 368.550928 332.631796 
L 369.25671 331.793951 
L 369.6096 331.500994 
L 370.315381 332.210042 
L 371.374053 333.625044 
L 374.550068 333.282051 
L 375.60874 331.881913 
L 376.314521 331.336042 
L 377.726084 332.912403 
L 379.137646 334.37608 
L 379.843427 334.840303 
L 380.549208 335.035573 
L 381.254989 334.9283 
L 381.960771 334.526358 
L 383.019442 333.479775 
L 385.136786 331.146827 
L 385.842567 330.797379 
L 386.548348 330.860006 
L 387.254129 331.225204 
L 389.018582 332.465892 
L 389.724363 332.584914 
L 391.488816 332.790487 
L 395.017722 333.368006 
L 395.723503 332.982493 
L 397.135066 331.596718 
L 401.016862 327.888646 
L 402.781315 326.579833 
L 404.192877 325.777053 
L 405.60444 325.225511 
L 407.016002 324.935981 
L 408.074674 324.908448 
L 409.133345 325.066514 
L 409.839127 325.256507 
L 410.192017 325.464271 
L 410.897798 326.305552 
L 412.662251 329.026344 
L 414.779595 331.11509 
L 415.485376 332.423323 
L 417.602719 337.031588 
L 418.661391 339.365656 
L 421.484516 347.165539 
L 423.601859 353.4225 
L 428.895218 367.175623 
L 430.659671 371.105189 
L 432.071233 373.762147 
L 434.894358 378.469467 
L 435.95303 379.87167 
L 436.658811 380.750188 
L 438.070373 382.966799 
L 438.776154 383.594769 
L 439.481936 383.854884 
L 439.834826 383.692887 
L 440.187717 383.193357 
L 440.540607 382.174918 
L 440.893498 380.417703 
L 441.246388 377.422014 
L 441.599279 373.256099 
L 442.30506 360.892404 
L 443.010841 345.508617 
L 443.363732 341.457115 
L 444.069513 358.750681 
L 445.128185 390.466327 
L 445.481075 388.852575 
L 446.186857 382.514332 
L 446.892638 372.779627 
L 450.068653 322.956423 
L 450.421544 319.910011 
L 450.774434 318.311561 
L 451.480215 316.469545 
L 451.833106 315.998555 
L 452.185997 316.378981 
L 452.538887 317.626136 
L 452.891778 319.958578 
L 453.597559 327.007375 
L 454.656231 341.958844 
L 455.714902 356.660417 
L 456.420683 364.382488 
L 457.126465 370.200052 
L 457.832246 374.231076 
L 458.538027 376.642073 
L 458.890918 377.289981 
L 459.243808 377.558966 
L 459.596699 377.502098 
L 459.949589 377.174084 
L 460.30248 376.553455 
L 461.008261 374.653079 
L 461.714042 371.844124 
L 462.419823 368.256692 
L 464.184276 357.587577 
L 466.65451 342.71004 
L 467.713182 337.599895 
L 468.418963 334.772994 
L 468.771854 333.651163 
L 469.124744 333.348873 
L 469.477635 333.294777 
L 469.830526 333.511162 
L 470.536307 334.466391 
L 471.594979 334.520904 
L 471.594979 334.520904 
" clip-path="url(#p6a46eb0528)" style="fill: none; stroke: #2f7f7b; stroke-width: 2; stroke-linecap: square"/>
   </g>
   <g id="text_63">
    <text style="fill: #475467; font: 7px 'Arial', 'DejaVu Sans', 'Liberation Sans', sans-serif; text-anchor: start" x="296.443807" y="282.373585" transform="rotate(-0 296.443807 282.373585)">Shaded: pre-merge</text>
   </g>
   <g id="text_64">
    <text style="fill: #6b7280; font: 7px 'Arial', 'DejaVu Sans', 'Liberation Sans', sans-serif; text-anchor: start" x="308.678593" y="295.304532" transform="rotate(-0 308.678593 295.304532)">First pass</text>
   </g>
   <g id="text_65">
    <text style="font: 700 11px 'Arial', 'DejaVu Sans', 'Liberation Sans', sans-serif; text-anchor: start" x="265.113899" y="261.806789" transform="rotate(-0 265.113899 261.806789)">d</text>
   </g>
  </g>
  <g id="text_66">
   <text style="font: 10px 'Arial', 'DejaVu Sans', 'Liberation Sans', sans-serif; text-anchor: middle" x="267.848578" y="14.479687" transform="rotate(-0 267.848578 14.479687)">Representative paired case: Expert controller / Crossing encounter (same seed)</text>
  </g>
  <g id="text_67">
   <text style="fill: #475467; font: 6.9px 'Arial', 'DejaVu Sans', 'Liberation Sans', sans-serif; text-anchor: middle" x="267.848578" y="22.485375" transform="rotate(-0 267.848578 22.485375)">Colored line: ego trajectory. Gray line: counterpart trajectory. Circle: start. Diamond: first pass. Cross: end. Faint floor projections and dotted guide stems aid depth reading.</text>
  </g>
  <g id="text_68">
   <!-- Representative seed: 48200000. Thick lines in panels c-d show a centered 1.0 s moving average of raw $d_{\mathrm{fwd}}(t)$. -->
   <g style="fill: #475467" transform="translate(97.004578 439.032)">
    <text>
     <tspan style="font: 6.9px 'Arial'" x="0 4.964905 8.788452 12.612 14.901428 18.724976 22.162476 25.986023 29.80957 31.719666 35.543213 37.453308 38.980713 42.418213 46.24176 48.151855 51.589355 55.412903 59.23645 63.059998 64.970093 66.880188 70.703735 74.527283 78.35083 82.174377 85.997925 89.821472 93.64502 97.468567 99.378662 101.288757 105.488281 109.311829 110.839233 114.276733 117.714233 119.624329 121.151733 122.679138 126.502686 130.326233 133.763733 135.673828 137.201233 141.02478 142.934875 146.758423 150.58197 154.405518 158.229065 159.75647 163.19397 165.104065 168.541565 170.830994 174.654541 176.564636 180.002136 183.825684 187.649231 192.614136 194.524231 198.347778 200.257874 203.695374 207.518921 211.342468 213.252563 217.076111 219.36554 223.189087 227.012634 228.922729 232.746277 234.656372 238.479919 240.390015 243.827515 245.73761 251.464539 255.288086 258.725586 260.252991 264.076538 267.900085 269.810181 273.633728 277.071228 280.894775 283.184204 287.007751 290.831299 294.654846 296.564941 300.388489 302.298584 304.208679 306.498108 310.321655 315.28656 338.497131" y="-0.6875">Representative seed: 48200000. Thick lines in panels c-d show a centered 1.0 s moving average of raw .</tspan>
     <tspan style="font: oblique 6.9px 'DejaVu Sans'" x="317.196655 333.119324" y="-0.6875">dt</tspan>
     <tspan style="font: 4.83px 'DejaVu Sans'" x="321.560669 323.254913 327.190918" y="0.4609375">fwd</tspan>
     <tspan style="font: 6.9px 'DejaVu Sans'" x="330.437134 335.814941" y="-0.6875">()</tspan>
    </text>
   </g>
  </g>
 </g>
 <defs>
  <clipPath id="p74ceb25f16">
   <rect x="77.409035" y="55.8" width="176.372664" height="176.372664"/>
  </clipPath>
  <clipPath id="pe891e20e65">
   <rect x="294.875457" y="55.8" width="176.372664" height="176.372664"/>
  </clipPath>
  <clipPath id="p497b6fe578">
   <rect x="73.448578" y="269.297664" width="184.293578" height="133.002336"/>
  </clipPath>
  <clipPath id="p6a46eb0528">
   <rect x="290.915" y="269.297664" width="184.293578" height="133.002336"/>
  </clipPath>
 </defs>
</svg>
